<?xml version="1.0" encoding="UTF-8" standalone="no"?>
<svg
   xmlns:dc="http://purl.org/dc/elements/1.1/"
   xmlns:cc="http://creativecommons.org/ns#"
   xmlns:rdf="http://www.w3.org/1999/02/22-rdf-syntax-ns#"
   xmlns:svg="http://www.w3.org/2000/svg"
   xmlns="http://www.w3.org/2000/svg"
   id="svg8"
   version="1.1"
   viewBox="0 0 200 200"
   height="200mm"
   width="200mm">
  <defs
     id="defs2" />
  <metadata
     id="metadata5">
    <rdf:RDF>
      <cc:Work
         rdf:about="">
        <dc:format>image/svg+xml</dc:format>
        <dc:type
           rdf:resource="http://purl.org/dc/dcmitype/StillImage" />
        <dc:title></dc:title>
      </cc:Work>
    </rdf:RDF>
  </metadata>
  <g
     transform="translate(0,-97)"
     id="layer1">
    <path
       id="path1427"
       d="M 91.620904,288.97735 C 74.863693,287.48943 58.360305,281.08523 44.629064,270.74201 40.393532,267.55154 33.275565,260.71346 29.544699,256.25078 23.681863,249.23793 17.345039,238.21953 14.15885,229.49802 3.564297,200.49773 8.4509961,168.17195 27.231118,143.02425 c 3.28214,-4.39498 12.986659,-14.0995 17.381638,-17.38164 23.150385,-17.28854 51.925277,-22.81048 79.488254,-15.2539 10.85733,2.97662 21.38893,8.18271 30.85768,15.2539 4.39497,3.28214 14.09949,12.98666 17.38163,17.38164 17.00299,22.768 22.68503,51.26465 15.59536,78.21399 -1.70502,6.48115 -3.26979,10.64077 -6.4051,17.02662 -4.90543,9.99113 -9.26528,16.045 -17.44875,24.22847 -7.77069,7.77069 -13.82767,12.21795 -23.0552,16.92796 -15.09501,7.70496 -32.44945,11.06166 -49.405726,9.55606 z M 109.2701,273.51086 c 17.12486,-2.24487 31.97139,-9.54658 44.12704,-21.70223 11.50103,-11.50103 18.52079,-25.16359 21.42293,-41.69546 0.95317,-5.42965 0.86421,-19.18046 -0.16003,-24.7376 -2.91992,-15.84234 -10.02628,-29.4846 -21.21403,-40.72509 -14.41253,-14.48049 -33.25146,-22.31467 -53.66029,-22.31467 -20.388788,0 -39.111172,7.77695 -53.597811,22.26359 -14.486642,14.48664 -22.263591,33.20903 -22.263591,53.59781 0,20.40306 7.774638,39.13607 22.249986,53.61142 12.033922,12.03392 26.902091,19.39478 43.817104,21.69274 4.933602,0.67024 14.203362,0.67481 19.278692,0.01 z M 86.209859,228.8686 84.827134,227.48587 v -28.90828 c 0,-24.54643 0.07786,-29.05886 0.516032,-29.90619 0.930624,-1.79963 3.152818,-2.75424 5.106883,-2.19382 1.400836,0.40175 39.813121,28.30726 40.583291,29.48267 0.79046,1.20639 0.73164,3.71845 -0.11358,4.85115 -0.59741,0.80061 -37.813675,28.08398 -39.645967,29.06459 -0.385725,0.20644 -1.371795,0.37534 -2.191265,0.37534 -1.255863,0 -1.707174,-0.21724 -2.872669,-1.38273 z"
       style="fill:#1d2d35;stroke-width:0.35615683" />
  </g>
</svg>
