<svg xmlns="http://www.w3.org/2000/svg" viewBox="0 0 777 379"><defs><style>.cls-1,.cls-2{fill:none;stroke:#000;}.cls-1{stroke-linejoin:round;stroke-width:5.902px;}.cls-2{stroke-miterlimit:1;stroke-width:6px;}</style></defs><title>_</title><g id="Kreise"><path class="cls-1" d="M399.493,189.4a120.5,120.5,0,1,0-120.5,120.5,120.5,120.5,0,0,0,120.5-120.5"/><path class="cls-2" d="M681.467,189.4a184,184,0,1,0-184,184,184,184,0,0,0,184-184"/></g><g id="HOOU"><path d="M647.507,125.821h0v79.094c0,16.935,11.478,53.242,64.476,53.242,53.109,0,64.477-36.061,64.477-53.117V125.821h-44.3v75.133c0,10.584-3.8,21.516-20.085,21.516-16.1,0-20.265-10.932-20.265-21.516V125.821Z"/><path d="M524.721,189.4c0,15.755-9.873,28.525-27.254,28.525-17.342,0-27.254-12.77-27.254-28.525s9.912-28.526,27.254-28.526c17.381,0,27.254,12.77,27.254,28.526m45.01,0c0-37.972-29.856-68.755-72.264-68.755-42.625,0-72.264,30.783-72.264,68.755s29.639,68.754,72.264,68.754c42.408,0,72.264-30.782,72.264-68.754"/><path d="M306.247,189.4c0,15.755-9.874,28.525-27.254,28.525-17.343,0-27.254-12.77-27.254-28.525s9.911-28.526,27.254-28.526c17.38,0,27.254,12.77,27.254,28.526m45.01,0c0-37.972-29.856-68.755-72.264-68.755-42.625,0-72.264,30.783-72.264,68.755s29.639,68.754,72.264,68.754c42.408,0,72.264-30.782,72.264-68.754"/><polygon points="85.878 125.82 85.878 171.845 43.073 171.845 43.073 125.82 0 125.82 0 252.312 43.073 252.312 43.073 209.483 85.878 209.483 85.878 252.312 128.953 252.312 128.953 125.82 85.878 125.82"/></g></svg>