<?xml version="1.0" encoding="UTF-8" standalone="no"?>
<svg
   xmlns:dc="http://purl.org/dc/elements/1.1/"
   xmlns:cc="http://creativecommons.org/ns#"
   xmlns:rdf="http://www.w3.org/1999/02/22-rdf-syntax-ns#"
   xmlns:svg="http://www.w3.org/2000/svg"
   xmlns="http://www.w3.org/2000/svg"
   id="svg8"
   version="1.1"
   viewBox="0 0 200 200"
   height="200mm"
   width="200mm">
  <defs
     id="defs2" />
  <metadata
     id="metadata5">
    <rdf:RDF>
      <cc:Work
         rdf:about="">
        <dc:format>image/svg+xml</dc:format>
        <dc:type
           rdf:resource="http://purl.org/dc/dcmitype/StillImage" />
        <dc:title></dc:title>
      </cc:Work>
    </rdf:RDF>
  </metadata>
  <g
     transform="translate(0,-97)"
     id="layer1">
    <path
       id="path1479"
       d="m 9.9287465,266.00695 c -2.421651,-0.85564 -5.097479,-3.63156 -6.084528,-6.31213 -0.446242,-1.21188 -0.811349,-2.54238 -0.811349,-2.95666 0,-0.42477 3.898417,-5.42794 8.9397785,-11.47317 l 8.939774,-10.71993 0.10231,-47.80956 c 0.10046,-46.95144 0.11596,-47.83644 0.86374,-49.30797 0.41879,-0.82413 1.4198,-2.0234 2.22447,-2.66503 l 1.46304,-1.16662 h 74.930988 74.93101 l 1.46303,1.16662 c 0.80467,0.64163 1.80569,1.8409 2.22448,2.66503 0.74775,1.47148 0.7633,2.35794 0.86511,49.30963 l 0.10368,47.8112 8.97392,10.76087 c 8.85246,10.61523 8.97042,10.77971 8.71515,12.15207 -0.47639,2.56109 -1.79403,5.01211 -3.50327,6.51664 -3.3146,2.91763 5.0139,2.68275 -93.93611,2.64923 -79.128218,-0.0268 -88.91575,-0.094 -90.4052235,-0.62022 z M 116.27524,262.3846 c 0.7627,-1.08891 0.74781,-1.28301 -0.16877,-2.1996 -0.73468,-0.73467 -1.26907,-0.76144 -15.204,-0.76144 -7.943388,0 -14.858628,0.1582 -15.367198,0.35156 -1.23302,0.46879 -1.55757,1.45929 -0.838,2.55748 l 0.58849,0.89816 h 15.198398 15.19841 z m 13.29611,-7.24413 c -0.41494,-0.47114 -1.66103,-1.92739 -2.76906,-3.23611 l -2.01462,-2.37949 h -24.2907 -24.290678 l -2.01462,2.37949 c -1.10804,1.30872 -2.35412,2.76497 -2.76907,3.23611 l -0.75445,0.85662 h 29.828818 29.82883 z m 36.9804,-28.18105 c 1.00756,-0.56364 1.81507,-1.43092 2.38635,-2.56298 l 0.86347,-1.71106 -0.10203,-39.4348 -0.10203,-39.43479 -1.06666,-1.39834 c -2.10348,-2.75757 3.73285,-2.5397 -68.03388,-2.5397 -71.766778,0 -65.930398,-0.21788 -68.033868,2.53973 l -1.06665,1.39836 -0.10036,39.43817 -0.10036,39.43817 0.8618,1.70766 c 0.5696,1.12869 1.37812,1.9965 2.38467,2.55958 l 1.52288,0.85193 h 64.531888 64.53191 z"
       style="fill:#1d2d35;stroke-width:0.38071916" />
  </g>
</svg>
