<?xml version="1.0" encoding="UTF-8" standalone="no"?>
<svg
   xmlns:dc="http://purl.org/dc/elements/1.1/"
   xmlns:cc="http://creativecommons.org/ns#"
   xmlns:rdf="http://www.w3.org/1999/02/22-rdf-syntax-ns#"
   xmlns:svg="http://www.w3.org/2000/svg"
   xmlns="http://www.w3.org/2000/svg"
   id="svg8"
   version="1.1"
   viewBox="0 0 200 200"
   height="200mm"
   width="200mm">
  <defs
     id="defs2" />
  <metadata
     id="metadata5">
    <rdf:RDF>
      <cc:Work
         rdf:about="">
        <dc:format>image/svg+xml</dc:format>
        <dc:type
           rdf:resource="http://purl.org/dc/dcmitype/StillImage" />
        <dc:title></dc:title>
      </cc:Work>
    </rdf:RDF>
  </metadata>
  <g
     transform="translate(0,-97)"
     id="layer1">
    <path
       id="path1440"
       d="m 43.831184,286.43127 c -9.78537,-2.06299 -17.758826,-9.51864 -20.88643,-19.53003 l -0.81693,-2.61498 V 197.8659 131.44554 l 0.81693,-2.61498 c 3.155615,-10.10105 11.121,-17.49648 21.05219,-19.54583 3.08946,-0.63752 5.26904,-0.66748 48.56087,-0.66748 42.923796,0 45.493736,0.0346 48.486606,0.65227 3.34156,0.68966 7.43722,2.3955 10.02304,4.17459 5.76199,3.96435 10.16,10.54044 11.57277,17.3041 0.41832,2.00269 0.51089,6.74448 0.51585,26.42514 0.006,22.89647 -0.024,24.04317 -0.65734,25.27809 -2.40375,4.68722 -8.35383,5.19614 -11.69394,1.00019 l -1.0662,-1.33939 -0.18731,-24.11303 c -0.20145,-25.93464 -0.10941,-24.64153 -2.01658,-28.33089 -0.79765,-1.54303 -3.46356,-4.20477 -5.3124,-5.30409 -3.12328,-1.85709 -1.82012,-1.80961 -49.664496,-1.80961 -48.20564,0 -46.43825,-0.0685 -49.85338,1.93288 -2.10898,1.23594 -4.59577,4.01237 -5.69564,6.35901 l -0.93444,1.99368 v 65.02571 65.02571 l 0.93444,1.99368 c 1.09987,2.34664 3.58666,5.12307 5.69564,6.35902 3.04582,1.78496 4.46591,1.93287 18.55813,1.93287 10.95655,0 13.21691,0.0853 14.30435,0.53963 5.71023,2.38589 5.71023,10.48138 0,12.86726 -1.09503,0.45754 -3.3753,0.53591 -14.98776,0.51511 -11.91565,-0.0213 -14.09298,-0.10818 -16.74797,-0.66791 z m 57.968696,0.15835 c -2.588149,-1.16768 -4.184926,-3.58381 -4.188776,-6.33812 -0.002,-1.76598 7.865806,-28.42835 9.084426,-30.78343 0.93641,-1.80968 40.51159,-41.14773 42.92877,-42.67154 9.70569,-6.11856 22.59498,-3.26979 28.82621,6.37113 2.34788,3.63264 3.01645,6.11427 3.01645,11.19665 0,5.07451 -0.66091,7.53375 -3.01631,11.22363 -1.92714,3.01898 -41.05297,42.21048 -42.90636,42.97838 -2.29745,0.95187 -28.98233,8.24243 -30.78326,8.41027 -1.1505,0.10722 -2.15744,-0.0244 -2.96115,-0.38697 z m 20.56865,-18.63836 6.45027,-1.77126 12.89949,-12.88811 12.89948,-12.88812 -4.88725,-4.88725 -4.88725,-4.88725 -12.92201,12.7035 -12.92202,12.70351 -1.68227,5.51965 c -0.92525,3.0358 -1.88827,6.19551 -2.14004,7.02158 -0.41993,1.37783 -0.40821,1.4872 0.14179,1.32348 0.32974,-0.0982 3.50216,-0.97554 7.04981,-1.94973 z m 44.82752,-40.72373 c 0.40812,-0.86006 0.53353,-1.84876 0.43359,-3.41832 -0.1152,-1.80915 -0.33047,-2.44693 -1.19111,-3.52872 -2.82673,-3.55314 -7.67037,-3.771 -10.75918,-0.48394 l -1.03251,1.09878 4.85727,4.86659 4.85727,4.86658 1.13024,-1.09546 c 0.62162,-0.6025 1.38862,-1.63998 1.70443,-2.30551 z M 53.688774,219.39586 c -0.84451,-0.43147 -2.01527,-1.38743 -2.60168,-2.12434 -0.9839,-1.23642 -1.0662,-1.55019 -1.0662,-4.06443 0,-2.51425 0.0823,-2.82802 1.0662,-4.06443 0.58641,-0.73692 1.75717,-1.69288 2.60168,-2.12435 l 1.53549,-0.78449 h 23.21269 23.212686 l 1.53548,0.78449 c 0.84452,0.43147 2.01528,1.38743 2.60169,2.12435 0.98389,1.23641 1.0662,1.55018 1.0662,4.06443 0,2.51424 -0.0823,2.82801 -1.0662,4.06443 -0.58641,0.73691 -1.75717,1.69287 -2.60169,2.12434 l -1.53548,0.78449 H 78.436954 55.224264 Z m 0,-27.89307 c -0.84451,-0.43147 -2.01527,-1.38742 -2.60168,-2.12434 -0.9839,-1.23641 -1.0662,-1.55018 -1.0662,-4.06443 0,-2.51425 0.0823,-2.82801 1.0662,-4.06443 0.58641,-0.73692 1.75717,-1.69287 2.60168,-2.12434 l 1.53549,-0.7845 h 37.2443 c 32.827736,0 37.397446,0.064 38.535816,0.53964 5.71023,2.38588 5.71023,10.48138 0,12.86726 -1.13837,0.47565 -5.70808,0.53964 -38.535816,0.53964 h -37.2443 z m 0,-27.89306 c -0.84451,-0.43147 -2.01527,-1.38743 -2.60168,-2.12434 -0.9839,-1.23642 -1.0662,-1.55019 -1.0662,-4.06444 0,-2.51424 0.0823,-2.82801 1.0662,-4.06443 0.58641,-0.73691 1.75717,-1.69287 2.60168,-2.12434 l 1.53549,-0.78449 h 37.2443 c 32.827736,0 37.397446,0.064 38.535816,0.53964 5.71023,2.38588 5.71023,10.48137 0,12.86725 -1.13837,0.47565 -5.70808,0.53964 -38.535816,0.53964 h -37.2443 z"
       style="fill:#1d2d35;stroke-width:0.34866333" />
  </g>
</svg>
