<?xml version="1.0" encoding="UTF-8" standalone="no"?>
<svg
   version="1.1"
   viewBox="0 0 768 576"
   id="svg13"
   xmlns="http://www.w3.org/2000/svg"
   xmlns:svg="http://www.w3.org/2000/svg">
  <defs
     id="defs17" />
  <g
     id="a"
     transform="translate(1.7567 8.9674)">
    <path
       d="m484.98 35.034c-85.97 0-161.8 43.365-206.84 109.41-25.659-16.185-56.044-25.559-88.622-25.559-91.871 0-166.34 74.474-166.34 166.34s74.474 166.34 166.34 166.34c32.406 0 62.64-9.277 88.212-25.305l0.013-8e-3c0.132-0.083 0.266-0.163 0.397-0.246 45.038 66.042 120.87 109.41 206.84 109.41 138.18 0 250.19-112.01 250.19-250.19s-112.01-250.19-250.19-250.19zm170.95 421.14c-22.205 22.205-48.06 39.638-76.848 51.814-29.8 12.604-61.46 18.995-94.101 18.995-20.375 0-40.617-2.538-60.162-7.544-18.969-4.858-37.339-12.051-54.598-21.38-33.906-18.324-63.328-44.869-85.089-76.766 17.269-12.231 32.08-27.684 43.61-45.463h-10.134c-10.489 14.983-23.542 28.13-38.498 38.702-7.815-12.349-14.434-25.298-19.837-38.702h-9.049c5.899 15.238 13.24 29.758 21.874 43.381-25.035 15.65-53.92 23.923-83.581 23.923-21.322 0-42.001-4.174-61.464-12.406-18.803-7.953-35.691-19.34-50.196-33.845s-25.892-31.393-33.845-50.196c-8.232-19.463-12.406-40.142-12.406-61.464s4.174-42.001 12.406-61.464c7.953-18.803 19.34-35.692 33.845-50.196 14.505-14.505 31.393-25.892 50.196-33.845 19.463-8.232 40.142-12.406 61.464-12.406 29.732 0 58.683 8.311 83.759 24.033-9.504 14.952-17.452 30.985-23.644 47.866h8.988c5.685-14.906 12.861-29.273 21.491-42.91 16.34 11.551 30.414 26.173 41.346 42.91h9.937c-11.91-19.618-27.744-36.59-46.44-49.796l0.154-0.226c21.763-31.913 51.195-58.47 85.113-76.801 17.259-9.328 35.629-16.521 54.598-21.38 19.545-5.006 39.786-7.544 60.162-7.544 32.641 0 64.302 6.391 94.101 18.995 28.788 12.176 54.643 29.609 76.848 51.814 22.205 22.206 39.638 48.061 51.814 76.848 12.604 29.8 18.995 61.46 18.995 94.102s-6.391 64.302-18.995 94.102c-12.176 28.787-29.609 54.643-51.814 76.848z"
       id="path2" />
  </g>
  <text
     x="140.79027"
     y="293.95374"
     font-family="Purisa"
     font-size="17.333px"
     font-weight="bold"
     style="line-height:1.25"
     xml:space="preserve"
     id="text7"><tspan
       x="140.79027"
       y="293.95374"
       id="tspan5" /></text>
  <g
     aria-label="pntfx"
     id="text11"
     style="font-weight:bold;font-size:127.81px;line-height:1.25;font-family:Jost;stroke-width:7.988">
    <path
       d="m 189.66862,353.98945 v -86.9108 h -19.29931 v 86.9108 z m 48.05656,-57.5145 q 0,-10.35261 -4.08992,-17.25435 -3.96211,-7.02955 -10.35261,-10.60823 -6.26269,-3.57868 -13.54786,-3.57868 -7.6686,0 -13.29224,3.96211 -5.49583,3.8343 -8.43546,10.86385 -2.93963,7.02955 -2.93963,16.6153 0,9.45794 2.93963,16.6153 2.93963,7.02955 8.43546,10.99166 5.62364,3.8343 13.29224,3.8343 7.28517,0 13.54786,-3.57868 6.3905,-3.57868 10.35261,-10.60823 4.08992,-7.02955 4.08992,-17.25435 z m -20.32179,0 q 0,4.60116 -1.91715,7.79641 -1.91715,3.19525 -5.1124,4.85678 -3.19525,1.66153 -7.02955,1.66153 -3.32306,0 -6.51831,-1.53372 -3.06744,-1.66153 -5.1124,-4.85678 -2.04496,-3.19525 -2.04496,-7.92422 0,-4.72897 2.04496,-7.92422 2.04496,-3.19525 5.1124,-4.72897 3.19525,-1.66153 6.51831,-1.66153 3.8343,0 7.02955,1.66153 3.19525,1.66153 5.1124,4.85678 1.91715,3.19525 1.91715,7.79641 z"
       id="path1698" />
    <path
       d="m 287.57091,290.08445 v 35.7868 h 20.06616 v -37.83176 q 0,-10.60823 -4.98459,-16.48749 -4.98458,-5.87926 -15.97624,-5.87926 -6.51831,0 -10.99166,2.68401 -4.34554,2.68401 -6.90174,7.54079 v -8.81889 h -19.42712 v 58.7926 h 19.42712 v -35.7868 q 0,-3.45087 1.2781,-5.87926 1.2781,-2.42839 3.57868,-3.70649 2.30058,-1.2781 5.36802,-1.2781 4.60116,0 6.51831,2.81182 2.04496,2.81182 2.04496,8.05203 z"
       id="path1700" />
    <path
       d="m 315.94458,267.07865 v 15.97625 h 39.36548 v -15.97625 z m 10.35261,-20.4496 v 79.2422 h 18.53245 v -79.2422 z"
       id="path1702" />
    <path
       d="m 358.24954,267.07865 v 15.97625 h 40.13234 v -15.97625 z m 37.95957,-22.36675 7.79641,-14.18691 q -1.2781,-1.2781 -3.45087,-2.68401 -2.17277,-1.53372 -5.36802,-2.5562 -3.06744,-1.15029 -7.41298,-1.15029 -7.28517,0 -12.26976,2.5562 -4.85678,2.5562 -7.41298,7.28517 -2.42839,4.72897 -2.42839,11.37509 v 80.5203 h 18.53245 v -75.66352 q 0,-3.06744 0.76686,-4.98459 0.76686,-1.91715 2.04496,-2.81182 1.40591,-0.89467 3.32306,-0.89467 1.66153,0 3.06744,0.76686 1.53372,0.76686 2.81182,2.42839 z"
       id="path1704" />
    <path
       d="m 445.16033,267.07865 -10.99166,15.46501 -10.73604,-15.46501 h -22.23894 l 22.87799,28.62944 -24.15609,30.16316 h 22.23894 l 12.01414,-17.12654 12.26976,17.12654 h 21.47208 l -23.77266,-30.16316 22.49456,-28.62944 z"
       id="path1706" />
  </g>
</svg>
