<?xml version="1.0" encoding="UTF-8"?><svg xmlns="http://www.w3.org/2000/svg" viewBox="0 0 768 576"><defs><style>.d{fill:#24223d;}.e{fill:#2dc6d6;opacity:.4;}.e,.f{mix-blend-mode:multiply;}.f{fill:#353535;opacity:.35;}.g{isolation:isolate;}</style></defs><g class="g"><g id="a"><circle class="f" cx="490.296" cy="286.226" r="251.267"/><circle class="e" cx="192.42" cy="286.226" r="167.794"/></g><g id="b"><g><path class="d" d="M128.503,299.685h-12.744v13.003h12.874c4.551,0,8.582,1.041,8.582,6.502,0,4.941-3.511,6.501-8.582,6.501h-27.827c-7.282,0-8.582-3.771-8.582-6.501,0-5.331,3.77-6.502,8.582-6.502h1.951v-49.802h-1.951c-4.812,0-8.582-1.17-8.582-6.502s3.511-6.501,8.582-6.501h30.298c16.514,0,28.217,10.143,28.217,24.577,0,10.663-6.112,25.226-30.817,25.226Zm-12.744-13.003h15.344c8.973,0,14.434-4.552,14.434-11.834,0-7.412-5.461-11.963-14.434-11.963h-15.344v23.796Z"/><path class="d" d="M237.213,297.475c0,16.904-14.824,30.298-33.549,30.298s-33.548-13.394-33.548-30.298c0-17.165,14.694-30.298,33.939-30.298,18.334,0,33.159,13.523,33.159,30.298Zm-54.094,0c0,9.752,8.972,17.294,20.545,17.294s20.546-7.542,20.546-17.294c0-9.622-8.972-17.295-20.285-17.295-11.834,0-20.805,7.412-20.805,17.295Z"/><path class="d" d="M250.348,312.688h.78v-30.817c-5.071-.13-7.932-2.34-7.932-6.501,0-4.682,3.641-6.502,8.713-6.502h12.223v6.242c6.242-5.981,10.663-7.932,17.814-7.932,13.004,0,23.147,7.542,23.147,21.846v23.665c5.071,0,7.932,2.341,7.932,6.502,0,5.201-3.77,6.501-8.582,6.501h-11.573c-5.852,0-8.712-2.21-8.712-6.501,0-4.161,2.86-6.502,7.932-6.502v-23.146c0-6.372-3.641-9.362-11.703-9.362-5.982,0-10.143,2.21-16.255,8.843v23.665h.78c4.551,0,8.582,1.041,8.582,6.502,0,5.331-4.031,6.501-8.582,6.501h-14.564c-5.071,0-8.582-1.56-8.582-6.501,0-5.331,3.901-6.502,8.582-6.502Z"/><path class="d" d="M351.908,314.769c14.824,0,18.985-5.851,23.536-5.851,3.511,0,6.242,2.991,6.242,6.631,0,7.802-20.025,12.223-29.908,12.223-14.824,0-24.056-6.892-24.056-17.944v-27.957h-4.551c-4.812,0-8.582-1.3-8.582-6.501,0-5.331,3.511-6.502,8.582-6.502h4.551v-11.443c0-4.551,1.04-8.582,6.501-8.582,5.332,0,6.502,3.511,6.502,8.582v11.443h23.536c4.941,0,8.583,1.171,8.583,6.502,0,5.201-3.771,6.501-8.583,6.501h-23.536v25.486c0,4.941,1.56,7.412,11.183,7.412Z"/><path class="d" d="M448.395,325.692h-44.732c-7.282,0-8.582-3.771-8.582-6.501,0-5.331,3.511-6.502,8.582-6.502h15.864v-30.817h-10.142c-4.812,0-8.713-1.3-8.713-6.501,0-5.592,3.901-6.502,8.713-6.502h23.146v43.821h15.864c4.551,0,8.582,1.041,8.582,6.502,0,4.941-3.511,6.501-8.582,6.501Zm-17.685-67.358h-15.344v-13.653h15.344v13.653Z"/><path class="d" d="M535.389,252.873c0,3.771-2.73,6.631-6.111,6.631-2.731,0-10.143-1.82-18.335-1.82-7.412,0-10.923,2.081-10.923,6.372v4.811h19.635c4.552,0,8.582,1.04,8.582,6.502,0,5.201-3.9,6.501-8.582,6.501h-19.635v30.817h18.075c5.071,0,8.582,1.301,8.582,6.502,0,4.941-3.511,6.501-8.582,6.501h-38.62c-4.941,0-8.583-1.56-8.583-6.501,0-5.331,3.511-6.502,8.583-6.502h7.542v-30.817h-6.112c-4.941,0-8.582-1.561-8.582-6.501,0-5.722,4.161-6.502,8.712-6.502h5.982v-4.811c0-11.964,9.622-19.375,25.096-19.375,17.425,0,23.276,3.121,23.276,8.192Z"/><path class="d" d="M573.882,327.772c-20.155,0-34.329-12.483-34.329-30.168,0-17.164,14.564-30.428,33.548-30.428,19.375,0,33.679,13.133,33.679,31.078v5.071h-53.054c2.991,7.802,9.882,11.442,21.325,11.442,12.093,0,20.416-4.291,25.487-4.291,3.511,0,6.242,2.861,6.242,6.502,0,9.232-27.308,10.792-32.899,10.792Zm18.465-35.89c-2.081-7.151-9.622-11.703-19.115-11.703s-17.164,4.682-19.115,11.703h38.23Z"/><path class="d" d="M643.712,275.238c0,2.341-1.17,4.552-3.381,5.982l7.932,6.372,7.932-6.501c-2.47-1.691-3.381-3.381-3.381-5.591,0-4.812,3.641-6.632,8.582-6.632h11.833c4.682,0,8.713,1.04,8.713,6.502,0,3.77-2.471,6.111-6.892,6.501l-17.164,14.304,19.765,16.514c4.421,.261,7.021,2.601,7.021,6.502,0,5.201-3.9,6.501-8.582,6.501h-14.564c-4.941,0-8.712-1.3-8.712-6.631,0-2.991,1.951-5.462,5.201-6.372l-9.753-7.932-9.492,7.932c3.641,1.561,4.941,3.252,4.941,6.372,0,4.421-2.861,6.631-8.582,6.631h-14.434c-5.722,0-8.582-2.21-8.582-6.501,0-3.901,2.6-6.242,7.021-6.502l18.856-16.644-16.644-14.173c-4.292-.391-6.762-2.731-6.762-6.501,0-4.682,3.641-6.502,8.582-6.502h11.964c4.811,0,8.582,1.171,8.582,6.372Z"/></g></g><g id="c"/></g></svg>