<?xml version="1.0" encoding="UTF-8"?><svg xmlns="http://www.w3.org/2000/svg" viewBox="0 0 768 576"><g id="a"><path d="M484.981,35.034c-85.97,0-161.802,43.365-206.841,109.407-25.659-16.185-56.044-25.559-88.622-25.559-91.871,0-166.344,74.474-166.344,166.344s74.474,166.344,166.344,166.344c32.406,0,62.64-9.277,88.212-25.305h0l.013-.008c.132-.083,.266-.163,.397-.246,45.038,66.042,120.871,109.407,206.841,109.407,138.179,0,250.192-112.013,250.192-250.193S623.16,35.034,484.981,35.034Zm170.95,421.143c-22.205,22.205-48.06,39.638-76.848,51.814-29.8,12.604-61.46,18.995-94.101,18.995-20.375,0-40.617-2.538-60.162-7.544-18.969-4.858-37.339-12.051-54.598-21.38-33.906-18.324-63.328-44.869-85.089-76.766,17.269-12.231,32.08-27.684,43.61-45.463h-10.134c-10.489,14.983-23.542,28.13-38.498,38.702-7.815-12.349-14.434-25.298-19.837-38.702h-9.049c5.899,15.238,13.24,29.758,21.874,43.381-25.035,15.65-53.92,23.923-83.581,23.923-21.322,0-42.001-4.174-61.464-12.406-18.803-7.953-35.691-19.34-50.196-33.845-14.505-14.505-25.892-31.393-33.845-50.196-8.232-19.463-12.406-40.142-12.406-61.464s4.174-42.001,12.406-61.464c7.953-18.803,19.34-35.692,33.845-50.196,14.505-14.505,31.393-25.892,50.196-33.845,19.463-8.232,40.142-12.406,61.464-12.406,29.732,0,58.683,8.311,83.759,24.033-9.504,14.952-17.452,30.985-23.644,47.866h8.988c5.685-14.906,12.861-29.273,21.491-42.91,16.34,11.551,30.414,26.173,41.346,42.91h9.937c-11.91-19.618-27.744-36.59-46.44-49.796l.154-.226c21.763-31.913,51.195-58.47,85.113-76.801,17.259-9.328,35.629-16.521,54.598-21.38,19.545-5.006,39.786-7.544,60.162-7.544,32.641,0,64.302,6.391,94.101,18.995,28.788,12.176,54.643,29.609,76.848,51.814,22.205,22.206,39.638,48.061,51.814,76.848,12.604,29.8,18.995,61.46,18.995,94.102s-6.391,64.302-18.995,94.102c-12.176,28.787-29.609,54.643-51.814,76.848Z"/></g><g id="b"><g><path d="M122.273,299.621h-12.683v12.941h12.812c4.529,0,8.541,1.036,8.541,6.471,0,4.918-3.495,6.47-8.541,6.47h-27.694c-7.247,0-8.541-3.753-8.541-6.47,0-5.306,3.752-6.471,8.541-6.471h1.941v-49.564h-1.941c-4.789,0-8.541-1.165-8.541-6.471s3.494-6.47,8.541-6.47h30.153c16.435,0,28.082,10.094,28.082,24.459,0,10.612-6.082,25.106-30.67,25.106Zm-12.683-12.941h15.271c8.93,0,14.365-4.53,14.365-11.777,0-7.376-5.435-11.905-14.365-11.905h-15.271v23.682Z"/><path d="M230.463,297.421c0,16.823-14.754,30.153-33.389,30.153s-33.388-13.33-33.388-30.153c0-17.083,14.623-30.153,33.777-30.153,18.247,0,33,13.459,33,30.153Zm-53.835,0c0,9.706,8.929,17.211,20.446,17.211s20.447-7.506,20.447-17.211c0-9.576-8.929-17.212-20.188-17.212-11.777,0-20.706,7.376-20.706,17.212Z"/><path d="M243.536,312.561h.777v-30.67c-5.047-.129-7.894-2.329-7.894-6.47,0-4.659,3.624-6.471,8.671-6.471h12.164v6.212c6.212-5.952,10.612-7.894,17.729-7.894,12.942,0,23.036,7.506,23.036,21.741v23.552c5.047,0,7.894,2.33,7.894,6.471,0,5.176-3.752,6.47-8.541,6.47h-11.518c-5.824,0-8.67-2.2-8.67-6.47,0-4.141,2.846-6.471,7.894-6.471v-23.035c0-6.341-3.623-9.318-11.647-9.318-5.953,0-10.094,2.2-16.177,8.8v23.552h.777c4.529,0,8.541,1.036,8.541,6.471,0,5.306-4.012,6.47-8.541,6.47h-14.494c-5.047,0-8.541-1.553-8.541-6.47,0-5.306,3.883-6.471,8.541-6.471Z"/><path d="M344.61,314.632c14.753,0,18.894-5.823,23.423-5.823,3.495,0,6.212,2.977,6.212,6.6,0,7.765-19.929,12.165-29.765,12.165-14.753,0-23.941-6.859-23.941-17.859v-27.824h-4.529c-4.789,0-8.541-1.294-8.541-6.47,0-5.306,3.494-6.471,8.541-6.471h4.529v-11.388c0-4.529,1.035-8.541,6.47-8.541,5.307,0,6.471,3.494,6.471,8.541v11.388h23.423c4.918,0,8.542,1.165,8.542,6.471,0,5.176-3.753,6.47-8.542,6.47h-23.423v25.364c0,4.918,1.553,7.376,11.13,7.376Z"/><path d="M440.635,325.503h-44.518c-7.247,0-8.541-3.753-8.541-6.47,0-5.306,3.494-6.471,8.541-6.471h15.788v-30.67h-10.094c-4.789,0-8.671-1.294-8.671-6.47,0-5.565,3.883-6.471,8.671-6.471h23.035v43.612h15.788c4.529,0,8.541,1.036,8.541,6.471,0,4.918-3.494,6.47-8.541,6.47Zm-17.6-67.036h-15.271v-13.588h15.271v13.588Z"/><path d="M527.214,253.032c0,3.753-2.717,6.6-6.082,6.6-2.718,0-10.094-1.811-18.247-1.811-7.376,0-10.871,2.071-10.871,6.341v4.788h19.541c4.53,0,8.541,1.035,8.541,6.471,0,5.176-3.882,6.47-8.541,6.47h-19.541v30.67h17.989c5.047,0,8.541,1.295,8.541,6.471,0,4.918-3.494,6.47-8.541,6.47h-38.435c-4.918,0-8.542-1.553-8.542-6.47,0-5.306,3.495-6.471,8.542-6.471h7.506v-30.67h-6.082c-4.918,0-8.541-1.553-8.541-6.47,0-5.695,4.141-6.471,8.67-6.471h5.953v-4.788c0-11.906,9.576-19.283,24.976-19.283,17.341,0,23.164,3.106,23.164,8.153Z"/><path d="M565.522,327.574c-20.059,0-34.165-12.424-34.165-30.024,0-17.082,14.494-30.282,33.388-30.282,19.283,0,33.518,13.07,33.518,30.93v5.047h-52.8c2.977,7.764,9.835,11.387,21.223,11.387,12.036,0,20.318-4.27,25.365-4.27,3.494,0,6.212,2.847,6.212,6.471,0,9.188-27.177,10.741-32.742,10.741Zm18.377-35.718c-2.071-7.117-9.576-11.647-19.024-11.647s-17.082,4.659-19.023,11.647h38.047Z"/><path d="M635.019,275.291c0,2.33-1.165,4.53-3.365,5.953l7.894,6.341,7.894-6.47c-2.459-1.683-3.365-3.365-3.365-5.564,0-4.789,3.623-6.601,8.541-6.601h11.776c4.659,0,8.671,1.035,8.671,6.471,0,3.752-2.459,6.082-6.859,6.47l-17.082,14.236,19.671,16.435c4.4,.259,6.988,2.589,6.988,6.471,0,5.176-3.882,6.47-8.541,6.47h-14.494c-4.918,0-8.67-1.294-8.67-6.6,0-2.977,1.941-5.436,5.176-6.342l-9.706-7.894-9.447,7.894c3.624,1.553,4.918,3.236,4.918,6.342,0,4.4-2.847,6.6-8.541,6.6h-14.365c-5.695,0-8.541-2.2-8.541-6.47,0-3.883,2.588-6.212,6.988-6.471l18.765-16.565-16.565-14.105c-4.271-.389-6.73-2.718-6.73-6.47,0-4.659,3.623-6.471,8.541-6.471h11.906c4.788,0,8.541,1.165,8.541,6.341Z"/></g></g><g id="c"/></svg>