<?xml version="1.0" encoding="UTF-8" standalone="no"?>
<!-- Created with Inkscape (http://www.inkscape.org/) -->

<svg
   xmlns:dc="http://purl.org/dc/elements/1.1/"
   xmlns:cc="http://creativecommons.org/ns#"
   xmlns:rdf="http://www.w3.org/1999/02/22-rdf-syntax-ns#"
   xmlns:svg="http://www.w3.org/2000/svg"
   xmlns="http://www.w3.org/2000/svg"
   xmlns:sodipodi="http://sodipodi.sourceforge.net/DTD/sodipodi-0.dtd"
   xmlns:inkscape="http://www.inkscape.org/namespaces/inkscape"
   width="200mm"
   height="200mm"
   viewBox="0 0 200 200"
   version="1.1"
   id="svg8"
   inkscape:version="0.92.4 (5da689c313, 2019-01-14)"
   sodipodi:docname="cap.svg">
  <defs
     id="defs2" />
  <sodipodi:namedview
     id="base"
     pagecolor="#ffffff"
     bordercolor="#666666"
     borderopacity="1.0"
     inkscape:pageopacity="0.0"
     inkscape:pageshadow="2"
     inkscape:zoom="0.35"
     inkscape:cx="-148.57143"
     inkscape:cy="560"
     inkscape:document-units="mm"
     inkscape:current-layer="layer1"
     showgrid="false"
     inkscape:window-width="1920"
     inkscape:window-height="1001"
     inkscape:window-x="-9"
     inkscape:window-y="-9"
     inkscape:window-maximized="1" />
  <metadata
     id="metadata5">
    <rdf:RDF>
      <cc:Work
         rdf:about="">
        <dc:format>image/svg+xml</dc:format>
        <dc:type
           rdf:resource="http://purl.org/dc/dcmitype/StillImage" />
        <dc:title></dc:title>
      </cc:Work>
    </rdf:RDF>
  </metadata>
  <g
     inkscape:label="Ebene 1"
     inkscape:groupmode="layer"
     id="layer1"
     transform="translate(0,-97)">
    <path
       style="fill:#1d2d35;stroke-width:0.38122442"
       d="m 171.7226,274.42132 c -2.35265,-1.57167 -2.62838,-2.66078 -2.62905,-10.38434 l -5.9e-4,-6.86561 -7.65095,-7.62092 c -4.20803,-4.1915 -7.98215,-8.25739 -8.38694,-9.03532 -0.82446,-1.58443 -0.93384,-3.15898 -0.33037,-4.75567 0.22308,-0.59026 3.9972,-4.68088 8.38693,-9.09028 l 7.98133,-8.01709 v -23.71985 c 0,-13.04591 -0.13114,-23.71983 -0.29142,-23.71983 -0.16028,0 -3.29108,1.0867 -6.95735,2.41489 l -6.66592,2.41489 -0.19061,19.82144 -0.19062,19.82142 -1.03952,1.36256 c -3.54573,4.64758 -11.95678,9.66553 -21.61286,12.894 -9.1948,3.07424 -18.40947,4.48145 -31.48148,4.80765 -26.132866,0.65212 -46.729674,-4.7989 -57.708484,-15.27275 -4.071414,-3.88416 -3.840877,-2.41065 -3.853181,-24.62819 l -0.01066,-19.25183 -17.057503,-6.2822 c -14.6143018,-5.38238 -17.2327884,-6.46238 -18.2812757,-7.5402 -2.1325752,-2.19223 -2.0567765,-5.67752 0.1698701,-7.81078 1.4101619,-1.35102 91.9427736,-34.2162 94.2542256,-34.2162 1.026263,0 16.081818,5.27315 47.361478,16.58817 43.22489,15.63605 45.92643,16.66623 47.06761,17.94831 2.12772,2.39043 1.95922,5.70552 -0.4012,7.89308 -0.51959,0.48153 -3.35723,1.72515 -6.30588,2.76359 l -5.36118,1.88807 -0.004,25.91187 -0.004,25.91189 7.97023,8.01709 c 11.66711,11.73572 11.66711,10.77928 0,22.515 l -7.96991,8.0171 -7.6e-4,6.85066 c -3.8e-4,5.7613 -0.10659,7.06161 -0.66714,8.17734 -0.95663,1.90438 -2.86133,3.05739 -5.05046,3.05739 -1.22987,0 -2.20039,-0.2719 -3.08873,-0.86535 z m 7.47499,-32.30337 4.18266,-4.19566 -4.28446,-4.28446 -4.28446,-4.28446 -4.28447,4.28446 -4.28446,4.28446 4.18266,4.19566 c 2.30046,2.30762 4.27428,4.19567 4.38627,4.19567 0.11198,0 2.0858,-1.88805 4.38626,-4.19567 z m -64.7436,-19.76582 c 12.73712,-1.96443 23.29753,-5.92667 28.42979,-10.66677 l 1.04837,-0.96826 v -15.17765 c 0,-9.63753 -0.13611,-15.17766 -0.37287,-15.17766 -0.20508,0 -10.45525,3.63948 -22.77816,8.08772 -15.51277,5.5997 -22.874396,8.08283 -23.930189,8.07182 -1.019413,-0.0106 -8.893996,-2.75479 -23.755275,-8.27833 -12.226706,-4.54434 -22.305326,-8.26243 -22.396935,-8.26243 -0.0916,0 -0.166557,7.0296 -0.166557,15.62134 v 15.62133 l 1.86402,1.47343 c 5.65641,4.47113 16.43582,8.1463 28.633934,9.76256 6.690724,0.88652 7.097091,0.90407 18.108159,0.78182 7.995123,-0.0888 11.414373,-0.28722 15.315713,-0.88892 z m 20.0301,-50.98582 c 20.27889,-7.31144 36.74779,-13.40164 36.59755,-13.53379 -0.46841,-0.41198 -72.289297,-26.27867 -72.948781,-26.27291 -0.543836,0.005 -73.095728,26.13587 -73.394434,26.43457 -0.198349,0.19835 72.094893,26.90872 72.49373,26.78445 0.209674,-0.0653 16.973045,-6.10088 37.251935,-13.41232 z"
       id="path1414"
       inkscape:connector-curvature="0" />
  </g>
</svg>
