<svg xmlns="http://www.w3.org/2000/svg" viewBox="0 0 1343 379"><defs><style>.cls-1,.cls-2{fill:none;stroke:#000;}.cls-1{stroke-linejoin:round;stroke-width:5.902px;}.cls-2{stroke-miterlimit:1;stroke-width:6px;}</style></defs><title>_</title><g id="Kreise"><path class="cls-1" d="M399.493,189.4a120.5,120.5,0,1,0-120.5,120.5,120.5,120.5,0,0,0,120.5-120.5"/><path class="cls-2" d="M681.467,189.4a184,184,0,1,0-184,184,184,184,0,0,0,184-184"/></g><g id="HOOU"><path d="M647.507,125.821h0v79.094c0,16.935,11.478,53.242,64.476,53.242,53.109,0,64.477-36.061,64.477-53.117V125.821h-44.3v75.133c0,10.584-3.8,21.516-20.085,21.516-16.1,0-20.265-10.932-20.265-21.516V125.821Z"/><path d="M524.721,189.4c0,15.755-9.873,28.525-27.254,28.525-17.342,0-27.254-12.77-27.254-28.525s9.912-28.526,27.254-28.526c17.381,0,27.254,12.77,27.254,28.526m45.01,0c0-37.972-29.856-68.755-72.264-68.755-42.625,0-72.264,30.783-72.264,68.755s29.639,68.754,72.264,68.754c42.408,0,72.264-30.782,72.264-68.754"/><path d="M306.247,189.4c0,15.755-9.874,28.525-27.254,28.525-17.343,0-27.254-12.77-27.254-28.525s9.911-28.526,27.254-28.526c17.38,0,27.254,12.77,27.254,28.526m45.01,0c0-37.972-29.856-68.755-72.264-68.755-42.625,0-72.264,30.783-72.264,68.755s29.639,68.754,72.264,68.754c42.408,0,72.264-30.782,72.264-68.754"/><polygon points="85.878 125.82 85.878 171.845 43.073 171.845 43.073 125.82 0 125.82 0 252.312 43.073 252.312 43.073 209.483 85.878 209.483 85.878 252.312 128.953 252.312 128.953 125.82 85.878 125.82"/><path d="M888.527,103.832H874.821V119.11h-7.476V82.271h7.476V97.332h13.706V82.271H896V119.11h-7.476Z"/><path d="M924.388,82.271h14.194l8.289,36.839H939.4l-1.463-6.664H925.038l-1.463,6.664H916.1Zm2.059,23.674h10.076l-3.738-17.5h-2.6Z"/><path d="M966.968,82.271H979.7l6.5,26.871,6.5-26.871h12.732V119.11h-7.477v-28.5h-.813l-7.205,26.87h-7.476l-7.205-26.87h-.813v28.5h-7.475Z"/><path d="M1043.08,82.271c7.422,0,11.485,2.709,11.485,9.751,0,4.172-1.138,6.285-4.063,8.126,3.142,1.355,4.767,3.63,4.767,8.4,0,7.368-4.605,10.565-11.973,10.565h-14.681V82.271Zm-6.989,6.393v8.775h6.664c2.925,0,4.225-1.516,4.225-4.442,0-3.033-1.462-4.333-4.279-4.333Zm0,15.06v8.993h6.826c3.088,0,4.768-.921,4.768-4.551,0-3.034-1.788-4.442-4.768-4.442Z"/><path d="M1090.481,113.259c4.388,0,6.555-2.113,6.555-6.447V82.271h7.476v24.378c0,9.21-4.821,13.111-14.031,13.111s-14.031-3.9-14.031-13.111V82.271h7.476v24.541C1083.926,111.2,1086.093,113.259,1090.481,113.259Z"/><path d="M1134.848,106.758V119.11h-7.476V82.271h14.3c8.4,0,13,3.738,13,12.135,0,5.092-2.059,8.5-5.418,10.618l5.255,14.086h-8.18l-4.28-12.352Zm6.826-18.094h-6.826v11.7h6.934c3.738,0,5.255-2.6,5.255-5.851C1147.037,90.993,1145.249,88.664,1141.674,88.664Z"/><path d="M1191.459,99.39h10.726v19.123a102.74,102.74,0,0,1-12.568,1.247c-12.027,0-15.061-6.718-15.061-19.07,0-13.435,3.9-19.069,14.79-19.069a74.667,74.667,0,0,1,12.839,1.517l-.216,5.8s-6.5-.7-11.432-.7c-6.392,0-8.288,2.113-8.288,12.46,0,9.806,1.354,12.569,8.072,12.569,2.221,0,4.5-.217,4.5-.217v-7.151h-3.358Z"/><path d="M865.72,189.784c0-12.46,3.683-19.286,15.277-19.286s15.277,6.826,15.277,19.286S892.59,208.637,881,208.637,865.72,202.244,865.72,189.784Zm22.861,0c0-8.5-1.517-12.785-7.584-12.785s-7.585,4.28-7.585,12.785,1.517,12.352,7.585,12.352S888.581,198.29,888.581,189.784Z"/><path d="M925.309,197.26v10.727h-7.476V171.148h13.544c8.668,0,13.11,4.226,13.11,12.785s-4.442,13.327-13.11,13.327Zm6.014-6.392c3.738,0,5.58-2.276,5.58-6.935,0-4.6-1.842-6.392-5.58-6.392h-6.014v13.327Z"/><path d="M964.909,171.148h23.837v6.5H972.385v8.614H985.5v6.392h-13.11v8.831h16.361v6.5H964.909Z"/><path d="M1010.088,171.148h12.623l8.884,30.338h.542V171.148h7.476v36.839h-12.3l-9.21-30.338h-.542v30.338h-7.476Z"/><path d="M1088.259,189.784c0-12.46,3.684-19.286,15.277-19.286s15.277,6.826,15.277,19.286-3.684,18.853-15.277,18.853S1088.259,202.244,1088.259,189.784Zm22.861,0c0-8.5-1.517-12.785-7.584-12.785s-7.585,4.28-7.585,12.785,1.517,12.352,7.585,12.352S1111.12,198.29,1111.12,189.784Z"/><path d="M1140.373,171.148h12.622l8.885,30.338h.542V171.148h7.476v36.839h-12.3l-9.21-30.338h-.542v30.338h-7.475Z"/><path d="M1193.082,207.987V171.148h7.476v30.23h13.49v6.609Z"/><path d="M1233.82,171.148h7.475v36.839h-7.475Z"/><path d="M1264.481,171.148H1277.1l8.885,30.338h.542V171.148h7.476v36.839h-12.3l-9.21-30.338h-.542v30.338h-7.476Z"/><path d="M1317.191,171.148h23.837v6.5h-16.361v8.614h13.11v6.392h-13.11v8.831h16.361v6.5h-23.837Z"/><path d="M881.051,291.013c4.388,0,6.555-2.112,6.555-6.447V260.025h7.476V284.4c0,9.21-4.822,13.11-14.031,13.11s-14.031-3.9-14.031-13.11V260.025H874.5v24.541C874.5,288.955,876.663,291.013,881.051,291.013Z"/><path d="M917.942,260.025h12.622l8.885,30.338h.542V260.025h7.476v36.839h-12.3l-9.21-30.337h-.542v30.337h-7.475Z"/><path d="M970.651,260.025h7.476v36.839h-7.476Z"/><path d="M1029.1,260.025l-8.559,36.839H1006.73l-8.56-36.839h7.856l6.392,30.338h2.438l6.393-30.338Z"/><path d="M1049.147,260.025h23.837v6.5h-16.361v8.613h13.111v6.393h-13.111v8.83h16.361v6.5h-23.837Z"/><path d="M1101.8,284.512v12.352h-7.476V260.025h14.3c8.4,0,13,3.738,13,12.135,0,5.093-2.059,8.506-5.418,10.619l5.255,14.085h-8.18l-4.28-12.352Zm6.825-18.094H1101.8v11.7h6.934c3.738,0,5.255-2.6,5.255-5.851C1113.992,268.747,1112.2,266.418,1108.628,266.418Z"/><path d="M1165.185,266.743s-7.639-.867-10.781-.867c-4.009,0-5.9,1.463-5.9,3.9,0,2.329,1.462,3.142,7.638,5.092,7.964,2.546,10.4,4.768,10.4,10.889,0,8.018-5.471,11.756-12.731,11.756a68.634,68.634,0,0,1-12.3-1.679l.758-5.8s7.26.975,11.106.975c4.009,0,5.742-1.9,5.742-4.767,0-2.276-1.3-3.305-6.609-4.822-8.288-2.384-11.43-5.2-11.43-11.106,0-7.638,5.092-10.943,12.568-10.943a76.914,76.914,0,0,1,12.135,1.463Z"/><path d="M1187.72,260.025h7.476v36.839h-7.476Z"/><path d="M1215.077,260.025h27.087v6.609h-9.751v30.23h-7.477v-30.23h-9.859Z"/><path d="M1276.888,296.864h-7.477v-14.9l-11.376-21.941h8.288l6.772,14.682,6.772-14.682h8.289l-11.268,21.941Z"/></g></svg>