<?xml version="1.0" encoding="UTF-8" standalone="no"?>
<svg
   xmlns:dc="http://purl.org/dc/elements/1.1/"
   xmlns:cc="http://creativecommons.org/ns#"
   xmlns:rdf="http://www.w3.org/1999/02/22-rdf-syntax-ns#"
   xmlns:svg="http://www.w3.org/2000/svg"
   xmlns="http://www.w3.org/2000/svg"
   id="svg8"
   version="1.1"
   viewBox="0 0 200 200"
   height="200mm"
   width="200mm">
  <defs
     id="defs2" />
  <metadata
     id="metadata5">
    <rdf:RDF>
      <cc:Work
         rdf:about="">
        <dc:format>image/svg+xml</dc:format>
        <dc:type
           rdf:resource="http://purl.org/dc/dcmitype/StillImage" />
        <dc:title></dc:title>
      </cc:Work>
    </rdf:RDF>
  </metadata>
  <g
     transform="translate(0,-97)"
     id="layer1">
    <path
       id="path1453"
       d="m 19.893204,288.96837 c -2.33008,-0.62727 -5.18536,-2.43584 -7.19045,-4.55452 -5.5868287,-5.90332 -5.9084617,-12.85503 -0.97554,-21.08501 0.98514,-1.64358 6.6897,-7.60118 21.90764,-22.8794 18.0185,-18.08986 20.57567,-20.792 20.57567,-21.74206 0,-0.62666 -1.1136,-3.29535 -2.63652,-6.31826 -5.32564,-10.57112 -7.69778,-19.67816 -8.10657,-31.12252 -0.4451,-12.46075 1.7531,-23.05966 7.09658,-34.21714 10.92853,-22.81937 31.50594,-37.99669 57.020566,-42.05678 5.12768,-0.81595 16.47944,-0.8135 21.78871,0.005 16.33813,2.51787 30.67931,9.73557 42.1645,21.22077 11.4852,11.48519 18.7029,25.82637 21.22077,42.1645 0.81822,5.30927 0.82067,16.66103 0.005,21.78871 -4.06008,25.51462 -19.2374,46.09203 -42.05677,57.02056 -11.15748,5.34348 -21.7564,7.54168 -34.21714,7.09659 -11.44436,-0.4088 -20.551406,-2.78094 -31.122526,-8.10658 -3.02291,-1.52292 -5.69159,-2.63652 -6.31825,-2.63652 -0.95007,0 -3.6522,2.55718 -21.74207,20.57567 -20.7418,20.65997 -22.2921,22.05405 -26.50025,23.82981 -3.68495,1.55497 -7.57069,1.91725 -10.91306,1.01746 z M 124.82684,234.47985 c 12.65049,-1.54827 24.10549,-7.12026 32.83915,-15.97375 4.99,-5.05847 7.58962,-8.68096 10.5994,-14.76992 7.73849,-15.65547 7.49267,-34.59608 -0.65034,-50.10883 -15.91642,-30.3214 -55.18754,-39.17964 -82.627196,-18.63792 -7.71337,5.77434 -14.47309,14.61998 -18.07924,23.65813 -10.82725,27.1365 0.90498,57.50391 27.31244,70.69481 8.746176,4.36884 20.611876,6.36061 30.605786,5.13748 z M 80.823864,174.06048 c -2.90362,-1.34854 -4.5042,-3.88291 -4.51813,-7.15402 -0.006,-1.52656 0.32187,-2.52699 1.79567,-5.47097 7.68567,-15.35237 22.309786,-25.27907 39.613656,-26.88936 7.81754,-0.72749 17.47854,0.8531 23.39616,3.82774 2.91129,1.46343 4.35166,3.76959 4.33708,6.94405 -0.0194,4.21532 -3.48905,7.69539 -7.68097,7.70394 -0.54468,0.001 -2.66288,-0.5554 -4.70712,-1.23668 -10.25988,-3.41932 -20.14694,-2.34326 -28.95128,3.15089 -5.336036,3.32984 -9.160616,7.6 -12.394526,13.83856 -0.9291,1.79233 -2.0487,3.55473 -2.488,3.91645 -2.46837,2.03246 -5.80427,2.57613 -8.40254,1.3694 z"
       style="fill:#1d2d35;stroke-width:0.36208621" />
  </g>
</svg>
