<?xml version="1.0" encoding="UTF-8" standalone="no"?>
<svg
   xmlns:dc="http://purl.org/dc/elements/1.1/"
   xmlns:cc="http://creativecommons.org/ns#"
   xmlns:rdf="http://www.w3.org/1999/02/22-rdf-syntax-ns#"
   xmlns:svg="http://www.w3.org/2000/svg"
   xmlns="http://www.w3.org/2000/svg"
   id="svg8"
   version="1.1"
   viewBox="0 0 200 200"
   height="200mm"
   width="200mm">
  <defs
     id="defs2" />
  <metadata
     id="metadata5">
    <rdf:RDF>
      <cc:Work
         rdf:about="">
        <dc:format>image/svg+xml</dc:format>
        <dc:type
           rdf:resource="http://purl.org/dc/dcmitype/StillImage" />
        <dc:title></dc:title>
      </cc:Work>
    </rdf:RDF>
  </metadata>
  <g
     transform="translate(0,-97)"
     id="layer1">
    <path
       id="path1466"
       d="m 85.536844,292.28044 c -3.60497,-1.17777 -6.54671,-3.84103 -8.20032,-7.42404 -0.8835,-1.91435 -1.07527,-2.87287 -1.08542,-5.42534 -0.0104,-2.61269 0.16293,-3.4801 1.10229,-5.51614 1.22886,-2.66351 4.04598,-5.60292 6.25402,-6.52551 l 1.34814,-0.56328 v -17.23224 -17.23224 l -1.06569,-0.23496 c -4.16093,-0.91743 -9.56368,-3.16466 -11.91637,-4.95651 -0.73799,-0.56207 -1.42355,0.0551 -14.33839,12.90805 -14.49448,14.42503 -14.61084,14.51572 -17.43072,13.58508 -2.14325,-0.70734 -3.15658,-2.54858 -2.97456,-5.40485 0.0438,-0.68789 3.77096,-4.66605 13.67058,-14.5914 l 13.61032,-13.64567 -1.42165,-2.30327 c -1.74578,-2.82837 -3.48599,-7.24698 -4.10607,-10.42579 -0.26586,-1.36288 -0.40325,-4.33348 -0.32071,-6.93384 l 0.14442,-4.54943 -11.04895,-8.59233 c -6.07692,-4.72578 -11.22816,-8.69811 -11.4472,-8.82739 -0.21903,-0.12928 -1.35254,0.0944 -2.5189,0.49696 -1.23221,0.42534 -3.21047,0.73732 -4.72192,0.74467 -11.81999,0.0575 -17.72039,-14.36951 -9.31468,-22.77521 5.17013,-5.17014 13.56534,-5.15293 18.74811,0.0384 3.1297,3.1349 4.45197,7.29677 3.74684,11.79331 -0.25742,1.64154 -0.21833,2.28962 0.15887,2.63366 1.27713,1.16485 19.74664,15.35841 19.8302,15.23922 2.94654,-4.20277 4.02823,-5.54326 5.91061,-7.32474 4.19646,-3.97153 8.49972,-6.37418 13.71018,-7.65485 l 2.90192,-0.71325 0.10088,-17.08442 0.10089,-17.08441 -3.23106,-1.56393 c -6.7564,-3.27028 -10.70097,-9.37216 -10.71964,-16.58227 -0.0433,-16.73243 19.80032,-25.002939 31.590816,-13.16654 5.28221,5.30279 6.83313,12.52726 4.20248,19.5759 -1.77568,4.75781 -5.72445,8.81382 -10.321766,10.6021 l -2.22826,0.86676 v 17.26614 17.26614 l 2.42202,0.48618 c 3.368746,0.67622 9.671016,3.84141 12.770886,6.41393 4.72059,3.91752 8.22259,9.46402 10.05498,15.92512 1.12826,3.97828 1.22876,11.09221 0.21013,14.87278 -1.53425,5.69424 -3.7791,9.90484 -7.38862,13.85865 -4.4169,4.83819 -10.2273,8.12144 -17.003706,9.60817 l -1.06569,0.2338 v 17.22957 17.22956 l 1.56617,0.799 c 2.13499,1.08919 4.391616,3.4282 5.680926,5.88831 0.95173,1.81598 1.07384,2.46439 1.07893,5.72921 0.005,3.18073 -0.13402,3.97958 -1.02173,5.87307 -1.27992,2.73008 -3.748456,5.17998 -6.529256,6.47994 -2.51481,1.17563 -7.0085,1.50227 -9.49433,0.69013 z m 6.74068,-9.90466 c 1.00479,-0.93862 1.20356,-1.41504 1.20356,-2.88483 0,-2.45125 -1.15684,-3.74857 -3.58692,-4.02247 -1.68502,-0.18993 -1.91711,-0.10524 -3.18429,1.16194 -1.88482,1.88483 -1.90092,3.70036 -0.0492,5.55206 1.76858,1.76858 3.85371,1.84034 5.61687,0.1933 z m 1.78484,-59.52746 c 4.28189,-0.90299 7.338716,-2.61387 10.664806,-5.96903 3.36328,-3.39267 4.73881,-5.74656 5.81344,-9.94833 2.86866,-11.21635 -3.55643,-22.62725 -14.734386,-26.16817 -2.98868,-0.94674 -8.0559,-1.10544 -11.2382,-0.35196 -9.71307,2.29979 -16.67144,10.98517 -16.7184,20.86775 -0.0414,8.7212 4.48659,16.09748 12.1492,19.79141 4.87748,2.35129 8.92166,2.86268 14.06354,1.77833 z m -62.63042,-53.13721 c 2.31459,-1.6212 2.27332,-5.31764 -0.0754,-6.74973 -0.67962,-0.41439 -1.6367,-0.7541 -2.12685,-0.75489 -2.47096,-0.004 -4.66423,2.67977 -4.14012,5.06603 0.55818,2.54135 4.19773,3.94074 6.34234,2.43859 z m 61.8582,-42.9069 c 6.027502,-2.80687 7.409456,-10.23041 2.78876,-14.98063 -4.51273,-4.63925 -12.72816,-3.02634 -15.25108,2.9942 -0.69853,1.66693 -0.66248,5.22467 0.0707,6.97946 2.12162,5.07776 7.539,7.26671 12.3916,5.00697 z m -78.10012,161.799 c -9.5179993,-2.87248 -15.33344924,-12.73467 -12.9585793,-21.9759 0.92002,-3.58005 2.48754,-6.35205 5.02931,-8.89382 3.4116993,-3.41169 8.4995593,-5.62287 12.9380593,-5.62287 2.26655,0 6.35649,1.02907 8.62941,2.17126 5.8528,2.94115 10.0163,9.84514 10.00901,16.59711 -0.009,8.15482 -5.57419,15.48128 -13.53384,17.81643 -2.68109,0.78656 -7.34239,0.74406 -10.11337,-0.0922 z m 9.89589,-9.8327 c 1.99049,-1.2643 2.68151,-2.05789 3.64883,-4.19047 3.49741,-7.71041 -4.58261,-15.83561 -12.17718,-12.24526 -7.2222794,3.41433 -7.4859194,13.1476 -0.45286,16.71923 1.73382,0.8805 2.36782,0.99581 4.71844,0.85823 2.05574,-0.12033 3.09142,-0.39772 4.26277,-1.14173 z M 128.31867,196.19764 c -1.86533,-1.25308 -2.5953,-3.45382 -1.78534,-5.38256 0.32868,-0.78269 1.03813,-1.71172 1.57654,-2.06449 0.53841,-0.35279 8.53113,-3.22309 17.76159,-6.37846 l 16.78266,-5.73704 0.24745,-2.85538 c 0.7396,-8.53452 6.60581,-15.06957 15.12102,-16.84504 5.86617,-1.22313 12.14443,0.7645 16.52326,5.23108 4.58719,4.67912 6.47394,11.26736 4.92729,17.20537 -2.22339,8.53616 -9.35409,14.2363 -17.85852,14.27573 -5.51662,0.0256 -9.72193,-1.74291 -13.6395,-5.73592 l -2.42949,-2.47626 -17.08099,5.82376 c -9.39454,3.20307 -17.47434,5.82377 -17.9551,5.82377 -0.48076,0 -1.46665,-0.39805 -2.19087,-0.88456 z m 57.28721,-12.74209 c 4.3973,-2.0729 6.3346,-7.63253 4.23255,-12.14652 -2.82856,-6.07408 -10.58177,-7.32143 -15.2483,-2.45316 -1.67124,1.74348 -2.44167,3.74121 -2.44167,6.33122 0,7.02834 6.98458,11.31978 13.45742,8.26846 z"
       style="fill:#1d2d35;stroke-width:0.38752404" />
  </g>
</svg>
