<svg id="Ebene_1" data-name="Ebene 1" xmlns="http://www.w3.org/2000/svg" viewBox="0 0 700 197.6"><polygon points="0 0 0 41.92 55.48 41.92 55.48 194.81 102.99 194.81 102.99 41.92 158.47 41.92 158.47 0 0 0"/><polygon points="470.4 0 470.4 76.58 406.96 76.58 406.96 0 359.44 0 359.44 194.81 406.96 194.81 406.96 118.5 470.4 118.5 470.4 194.81 517.91 194.81 517.91 0 470.4 0"/><polygon points="652.49 0 652.49 76.58 589.05 76.58 589.05 0 541.53 0 541.53 194.81 589.05 194.81 589.05 118.5 652.49 118.5 652.49 194.81 700 194.81 700 0 652.49 0"/><path d="M406.66,598.66c-43.69,0-79.24-35.27-79.24-78.63v-119h47.23V520a32,32,0,0,0,64,0v-119h47.22V520c0,43.36-35.54,78.63-79.23,78.63" transform="translate(-150.07 -401.06)"/></svg>