<svg id="Ebene_1" data-name="Ebene 1" xmlns="http://www.w3.org/2000/svg" viewBox="0 0 628.2 442.08"><polygon points="30.08 105.62 55.84 105.62 55.84 22.73 85.91 22.73 85.91 0 0 0 0 22.73 30.08 22.73 30.08 105.62"/><polygon points="220.64 64.25 255.03 64.25 255.03 105.62 280.79 105.62 280.79 0 255.03 0 255.03 41.52 220.64 41.52 220.64 0 194.88 0 194.88 105.62 220.64 105.62 220.64 64.25"/><polygon points="319.35 64.25 353.75 64.25 353.75 105.62 379.51 105.62 379.51 0 353.75 0 353.75 41.52 319.35 41.52 319.35 0 293.6 0 293.6 105.62 319.35 105.62 319.35 64.25"/><path d="M325,386.33A42.84,42.84,0,0,0,368,343.7V279.2h-25.6v64.5a17.36,17.36,0,0,1-34.71,0V279.2h-25.6v64.5A42.85,42.85,0,0,0,325,386.33Z" transform="translate(-185.9 -279.2)"/><path d="M548.15,640.93c-17,0-29.43,12.05-29.43,28.76s12.38,28.86,29.43,28.86,29.32-12.16,29.32-28.86S565.2,640.93,548.15,640.93Zm0,50c-11.93,0-20.57-8.87-20.57-21.25s8.64-21.14,20.57-21.14,20.46,8.86,20.46,21.14S560,690.94,548.15,690.94Z" transform="translate(-185.9 -279.2)"/><path d="M284,640.93c-17.05,0-29.43,12.05-29.43,28.76s12.38,28.86,29.43,28.86c13.75,0,25.46-9,28.53-21.37h-8.87a20.2,20.2,0,0,1-19.55,14.21,20.6,20.6,0,0,1-21-19h50a20.79,20.79,0,0,0,.23-2.72C313.29,653,301,640.93,284,640.93Zm-20.68,24.78c1.7-10.46,9.88-17.62,20.79-17.62s19.44,7.27,20.91,17.62Z" transform="translate(-185.9 -279.2)"/><path d="M351.82,648.55a19.93,19.93,0,0,1,19.88,16.13h8.76c-1.82-13.75-13.87-23.75-28.64-23.75-17.05,0-29.44,12.05-29.44,28.76s12.39,28.86,29.44,28.86c14.77,0,26.82-10,28.64-23.87H371.7a19.94,19.94,0,0,1-19.88,16.26c-11.94,0-20.57-8.87-20.57-21.25S339.88,648.55,351.82,648.55Z" transform="translate(-185.9 -279.2)"/><rect x="403.89" y="339.91" width="8.75" height="78.42"/><polygon points="72.5 339.91 13.29 339.91 13.29 348.21 38.29 348.21 38.29 418.33 47.5 418.33 47.5 348.21 72.5 348.21 72.5 339.91"/><path d="M728.52,652c-4.89-6.82-12.84-11-22.39-11-15.91,0-27.51,11.71-27.51,28s11.6,28,27.51,28c9.55,0,17.5-4.21,22.39-11.14v8.75c0,11.48-8.53,19.77-20.34,19.77-8.42,0-16.37-5-18.76-11.7l-8.29-.11c2.73,10.91,14.2,18.86,27.39,18.86,16.7,0,28.63-11.48,28.63-27.27V641.84h-8.63ZM708.06,690c-11.93,0-20.57-8.87-20.57-21.14s8.64-21.25,20.57-21.25,20.46,8.86,20.46,21.25S719.88,690,708.06,690Z" transform="translate(-185.9 -279.2)"/><polygon points="589.01 403.22 569.8 362.64 560.6 362.64 584.92 411.86 570.37 440.61 579.58 440.61 617.19 362.64 607.99 362.64 589.01 403.22"/><path d="M484.85,640.93c-8.52,0-15.23,4-18.75,10.8v-9.89h-8.75v55.69h8.75V665c0-10.45,6.36-17.15,16.25-17.15s16,6.7,16,17.15v32.51H507V664C507,650,498,640.93,484.85,640.93Z" transform="translate(-185.9 -279.2)"/><path d="M640.17,640.93c-17,0-29.44,12.05-29.44,28.76s12.39,28.86,29.44,28.86,29.32-12.16,29.32-28.86S657.22,640.93,640.17,640.93Zm0,50c-11.93,0-20.57-8.87-20.57-21.25s8.64-21.14,20.57-21.14,20.46,8.86,20.46,21.14S652,690.94,640.17,690.94Z" transform="translate(-185.9 -279.2)"/><path d="M420.08,640.93c-8.52,0-15.23,4-18.75,10.8V619.11h-8.75v78.42h8.75V665c0-10.45,6.37-17.15,16.25-17.15s16,6.7,16,17.15v32.51h8.63V664C442.24,650,433.26,640.93,420.08,640.93Z" transform="translate(-185.9 -279.2)"/><rect x="153.38" y="258.16" width="8.64" height="55.69"/><path d="M343.6,517.13c-3.52,0-5.91,2.27-5.91,5.45s2.39,5.57,5.91,5.57a5.43,5.43,0,0,0,5.8-5.57C349.4,519.4,347,517.13,343.6,517.13Z" transform="translate(-185.9 -279.2)"/><path d="M810.13,521.1a11.14,11.14,0,0,1,4,.8v-7.84a26.6,26.6,0,0,0-4.09-.34c-9.2,0-15.68,5.91-15.68,14.43v9.21h-8.18v7.38h8.18V593h8.75v-48.3h11v-7.38h-11v-9.21A6.69,6.69,0,0,1,810.13,521.1Z" transform="translate(-185.9 -279.2)"/><polygon points="431.54 313.85 431.54 265.55 444.27 265.55 444.27 258.16 431.54 258.16 431.54 243.95 422.9 243.95 422.9 258.16 412.56 258.16 412.56 265.55 422.9 265.55 422.9 313.85 431.54 313.85"/><path d="M545.6,542.92c7.39,0,12.39,3.87,12.62,9.66h8.07c0-9.54-8.41-16.13-20.57-16.13S525,542.7,525,552.24c0,12.62,11.94,14.89,20.46,16.37,7.16,1.36,13.64,2.39,13.64,9.54,0,5.57-5.34,9.32-13,9.32-8.07,0-13.63-4.09-13.86-10.23h-8.53c.23,9.89,9.21,16.83,22.17,16.83s21.7-6.71,21.7-16.37c0-12.84-12.72-15-20.91-16.59-7.16-1.48-13.07-2.62-13.07-9.66C533.67,546.33,538.56,542.92,545.6,542.92Z" transform="translate(-185.9 -279.2)"/><path d="M584.63,528.15a5.43,5.43,0,0,0,5.8-5.57c0-3.18-2.39-5.45-5.8-5.45s-5.91,2.27-5.91,5.45S581.11,528.15,584.63,528.15Z" transform="translate(-185.9 -279.2)"/><path d="M495.39,550.88V537.36h-8.75V593h8.75V564.86c0-12.84,7.95-20.23,21.59-20.23v-8.52C506.52,536.11,498.91,541.45,495.39,550.88Z" transform="translate(-185.9 -279.2)"/><rect x="394.42" y="258.16" width="8.64" height="55.69"/><path d="M473.71,572.7h-8.86a20.21,20.21,0,0,1-19.55,14.21,20.6,20.6,0,0,1-21-19h50a22.85,22.85,0,0,0,.23-2.73c0-16.71-12.28-28.75-29.32-28.75s-29.44,12-29.44,28.75,12.39,28.87,29.44,28.87C458.94,594.07,470.64,585.09,473.71,572.7ZM445.3,543.6c10.91,0,19.44,7.28,20.91,17.62H424.5C426.21,550.77,434.39,543.6,445.3,543.6Z" transform="translate(-185.9 -279.2)"/><path d="M751.11,594.07c17,0,29.32-12.16,29.32-28.87s-12.27-28.75-29.32-28.75-29.43,12-29.43,28.75S734.06,594.07,751.11,594.07Zm0-50c11.82,0,20.46,8.87,20.46,21.14s-8.64,21.25-20.46,21.25-20.57-8.86-20.57-21.25S739.18,544.06,751.11,544.06Z" transform="translate(-185.9 -279.2)"/><path d="M229,594.07c18,0,30-11.94,30-30V514.63h-9.2v49c0,13.29-8.19,21.93-20.92,21.93s-20.79-8.64-20.79-21.93v-49h-9.32v49.43C198.75,582.13,210.91,594.07,229,594.07Z" transform="translate(-185.9 -279.2)"/><polygon points="460.2 258.16 451 258.16 475.32 307.37 460.77 336.12 469.98 336.12 507.6 258.16 498.39 258.16 479.41 298.73 460.2 258.16"/><path d="M324.43,593V559.52c0-14-9-23.07-22.16-23.07-8.53,0-15.23,4-18.75,10.79v-9.88h-8.75V593h8.75v-32.5c0-10.45,6.36-17.16,16.25-17.16s16,6.71,16,17.16V593Z" transform="translate(-185.9 -279.2)"/><polygon points="217.22 258.16 198.81 305.21 180.28 258.16 171.08 258.16 193.58 313.85 203.92 313.85 226.42 258.16 217.22 258.16"/><path d="M638,488.33c9.55,0,17.51-4.2,22.39-11.14v8.75c0,11.48-8.52,19.78-20.34,19.78-8.41,0-16.37-5-18.75-11.71l-8.3-.11c2.73,10.91,14.2,18.86,27.39,18.86,16.71,0,28.64-11.47,28.64-27.27V433.32h-8.64v10.12c-4.88-6.82-12.84-11-22.39-11-15.91,0-27.5,11.7-27.5,27.95S622.12,488.33,638,488.33ZM640,439.12c11.82,0,20.46,8.87,20.46,21.25s-8.64,21.14-20.46,21.14-20.57-8.86-20.57-21.14S628,439.12,640,439.12Z" transform="translate(-185.9 -279.2)"/><path d="M354.82,441.62v-8.3h-8.76V489h8.76V453.78c0-8.86,5.22-14.32,13.52-14.32,8.52,0,13.52,5.46,13.52,14.32V489h8.64V453.78c0-8.86,5.23-14.32,13.64-14.32s13.41,5.46,13.41,14.32V489h8.64V452.76c0-12.5-7.62-20.34-19.21-20.34-8.64,0-15.23,4.2-18.18,11.25-2.73-7.05-8.87-11.25-17.17-11.25C364,432.42,358,435.71,354.82,441.62Z" transform="translate(-185.9 -279.2)"/><polygon points="72.15 209.81 72.15 131.4 62.83 131.4 62.83 166.86 22.94 166.86 22.94 131.4 13.73 131.4 13.73 209.81 22.94 209.81 22.94 175.15 62.83 175.15 62.83 209.81 72.15 209.81"/><path d="M560.69,466.05V433.32h-8.76v32.73c0,10.12-6.25,16.71-15.91,16.71s-15.91-6.59-15.91-16.71V433.32h-8.75v32.73c0,14.44,9.89,24,24.66,24S560.69,480.49,560.69,466.05Z" transform="translate(-185.9 -279.2)"/><path d="M299.64,490c9.43,0,17.39-4.2,22.27-11.13V489h8.64V433.32h-8.64v10.23c-4.88-6.93-12.84-11.13-22.27-11.13-16,0-27.61,12-27.61,28.75S283.62,490,299.64,490Zm1.82-50c11.82,0,20.45,8.87,20.45,21.14s-8.63,21.25-20.45,21.25-20.57-8.86-20.57-21.25S289.53,440,301.46,440Z" transform="translate(-185.9 -279.2)"/><path d="M450.22,443.55V410.6h-8.75V489h8.75V478.9A26.8,26.8,0,0,0,472.5,490c15.91,0,27.61-12.16,27.61-28.86s-11.7-28.75-27.61-28.75C463,432.42,455.11,436.62,450.22,443.55ZM470.68,440c11.93,0,20.45,8.87,20.45,21.14s-8.52,21.25-20.45,21.25-20.46-8.86-20.46-21.25S458.75,440,470.68,440Z" transform="translate(-185.9 -279.2)"/><path d="M584.47,460.83c0-12.84,8-20.23,21.59-20.23v-8.53c-10.45,0-18.07,5.35-21.59,14.78V433.32h-8.75V489h8.75Z" transform="translate(-185.9 -279.2)"/></svg>