<?xml version="1.0" encoding="UTF-8" standalone="no"?>
<svg
   xmlns:dc="http://purl.org/dc/elements/1.1/"
   xmlns:cc="http://creativecommons.org/ns#"
   xmlns:rdf="http://www.w3.org/1999/02/22-rdf-syntax-ns#"
   xmlns:svg="http://www.w3.org/2000/svg"
   xmlns="http://www.w3.org/2000/svg"
   xmlns:sodipodi="http://sodipodi.sourceforge.net/DTD/sodipodi-0.dtd"
   xmlns:inkscape="http://www.inkscape.org/namespaces/inkscape"
   version="1.1"
   id="Ebene_1"
   x="0px"
   y="0px"
   viewBox="0 0 628.20001 442.29999"
   xml:space="preserve"
   sodipodi:docname="TUHH_logo-wortmarke_en_rgb.svg"
   width="628.20001"
   height="442.29999"
   inkscape:version="1.0.1 (3bc2e813f5, 2020-09-07)"><metadata
   id="metadata1045"><rdf:RDF><cc:Work
       rdf:about=""><dc:format>image/svg+xml</dc:format><dc:type
         rdf:resource="http://purl.org/dc/dcmitype/StillImage" /><dc:title></dc:title></cc:Work></rdf:RDF></metadata><defs
   id="defs1043"><inkscape:perspective
     sodipodi:type="inkscape:persp3d"
     inkscape:vp_x="0 : -57.700012 : 1"
     inkscape:vp_y="0 : 1000 : 0"
     inkscape:vp_z="1000 : -57.700012 : 1"
     inkscape:persp3d-origin="500 : -224.36668 : 1"
     id="perspective1752" /></defs><sodipodi:namedview
   pagecolor="#ffffff"
   bordercolor="#666666"
   borderopacity="1"
   objecttolerance="10"
   gridtolerance="10"
   guidetolerance="10"
   inkscape:pageopacity="0"
   inkscape:pageshadow="2"
   inkscape:window-width="960"
   inkscape:window-height="1135"
   id="namedview1041"
   showgrid="false"
   fit-margin-top="0"
   fit-margin-left="0"
   fit-margin-right="0"
   fit-margin-bottom="0"
   inkscape:zoom="1.2591531"
   inkscape:cx="314.10001"
   inkscape:cy="325.0548"
   inkscape:window-x="0"
   inkscape:window-y="0"
   inkscape:window-maximized="0"
   inkscape:current-layer="Ebene_1" />
<style
   type="text/css"
   id="style966">
	.st0{fill:#00C1D4;}
</style>
<g
   id="g1038"
   transform="translate(-185.9,-279.2)">
	<polygon
   class="st0"
   points="241.7,301.9 271.8,301.9 271.8,279.2 185.9,279.2 185.9,301.9 216,301.9 216,384.8 241.7,384.8 "
   id="polygon968" />
	<polygon
   class="st0"
   points="440.9,384.8 466.7,384.8 466.7,279.2 440.9,279.2 440.9,320.7 406.5,320.7 406.5,279.2 380.8,279.2 380.8,384.8 406.5,384.8 406.5,343.4 440.9,343.4 "
   id="polygon970" />
	<polygon
   class="st0"
   points="539.6,384.8 565.4,384.8 565.4,279.2 539.6,279.2 539.6,320.7 505.3,320.7 505.3,279.2 479.5,279.2 479.5,384.8 505.3,384.8 505.3,343.4 539.6,343.4 "
   id="polygon972" />
	<path
   class="st0"
   d="m 325,386.3 c 23.7,0 43,-19.1 43,-42.6 v -64.5 h -25.6 v 64.5 c 0,9.5 -7.8,17.2 -17.4,17.2 -9.5,0 -17.3,-7.7 -17.4,-17.2 V 279.2 H 282 v 64.5 c 0.1,23.5 19.3,42.6 43,42.6 z"
   id="path974" />
	<path
   class="st0"
   d="m 548.2,640.9 c -17,0 -29.4,12 -29.4,28.8 0,16.7 12.4,28.9 29.4,28.9 17,0 29.3,-12.2 29.3,-28.9 0,-16.7 -12.3,-28.8 -29.3,-28.8 z m 0,50 c -11.9,0 -20.6,-8.9 -20.6,-21.3 0,-12.3 8.6,-21.1 20.6,-21.1 11.8,0 20.5,8.9 20.5,21.1 -0.1,12.5 -8.7,21.3 -20.5,21.3 z"
   id="path976" />
	<path
   class="st0"
   d="m 284,640.9 c -17,0 -29.4,12 -29.4,28.8 0,16.7 12.4,28.9 29.4,28.9 13.8,0 25.5,-9 28.5,-21.4 h -8.9 c -2.4,8.2 -10.2,14.2 -19.5,14.2 -11.4,0 -19.9,-8 -21,-19 h 50 c 0.1,-0.9 0.2,-1.8 0.2,-2.7 0,-16.7 -12.3,-28.8 -29.3,-28.8 z m -20.7,24.8 c 1.7,-10.5 9.9,-17.6 20.8,-17.6 10.9,0 19.4,7.3 20.9,17.6 z"
   id="path978" />
	<path
   class="st0"
   d="m 351.8,648.5 c 9.9,0 18.1,6.7 19.9,16.1 h 8.8 c -1.8,-13.8 -13.9,-23.8 -28.6,-23.8 -17,0 -29.4,12 -29.4,28.8 0,16.7 12.4,28.9 29.4,28.9 14.8,0 26.8,-10 28.6,-23.9 h -8.8 c -1.8,9.4 -9.9,16.3 -19.9,16.3 -11.9,0 -20.6,-8.9 -20.6,-21.3 0,-12.2 8.7,-21.1 20.6,-21.1 z"
   id="path980" />
	<rect
   x="589.79999"
   y="619.09998"
   class="st0"
   width="8.6999998"
   height="78.400002"
   id="rect982" />
	<polygon
   class="st0"
   points="199.2,627.4 224.2,627.4 224.2,697.5 233.4,697.5 233.4,627.4 258.4,627.4 258.4,619.1 199.2,619.1 "
   id="polygon984" />
	<path
   class="st0"
   d="m 728.5,652 c -4.9,-6.8 -12.8,-11 -22.4,-11 -15.9,0 -27.5,11.7 -27.5,28 0,16.3 11.6,28 27.5,28 9.5,0 17.5,-4.2 22.4,-11.1 v 8.7 c 0,11.5 -8.5,19.8 -20.3,19.8 -8.4,0 -16.4,-5 -18.8,-11.7 l -8.3,-0.1 c 2.7,10.9 14.2,18.9 27.4,18.9 16.7,0 28.6,-11.5 28.6,-27.3 V 642 h -8.6 z m -20.4,38 c -11.9,0 -20.6,-8.9 -20.6,-21.1 0,-12.4 8.6,-21.3 20.6,-21.3 11.8,0 20.5,8.9 20.5,21.3 -0.1,12.3 -8.7,21.1 -20.5,21.1 z"
   id="path986" />
	<polygon
   class="st0"
   points="746.5,641.8 770.8,691.1 756.3,719.8 765.5,719.8 803.1,641.8 793.9,641.8 774.9,682.4 755.7,641.8 "
   id="polygon988" />
	<path
   class="st0"
   d="m 484.8,640.9 c -8.5,0 -15.2,4 -18.7,10.8 v -9.9 h -8.8 v 55.7 h 8.8 V 665 c 0,-10.5 6.4,-17.2 16.2,-17.2 9.8,0 16,6.7 16,17.2 v 32.5 h 8.6 V 664 C 507,650 498,640.9 484.8,640.9 Z"
   id="path990" />
	<path
   class="st0"
   d="m 640.2,640.9 c -17,0 -29.4,12 -29.4,28.8 0,16.7 12.4,28.9 29.4,28.9 17,0 29.3,-12.2 29.3,-28.9 0,-16.7 -12.3,-28.8 -29.3,-28.8 z m 0,50 c -11.9,0 -20.6,-8.9 -20.6,-21.3 0,-12.3 8.6,-21.1 20.6,-21.1 11.8,0 20.5,8.9 20.5,21.1 -0.1,12.5 -8.7,21.3 -20.5,21.3 z"
   id="path992" />
	<path
   class="st0"
   d="m 420.1,640.9 c -8.5,0 -15.2,4 -18.7,10.8 v -32.6 h -8.8 v 78.4 h 8.8 V 665 c 0,-10.5 6.4,-17.2 16.2,-17.2 9.8,0 16,6.7 16,17.2 v 32.5 h 8.6 V 664 c 0,-14 -8.9,-23.1 -22.1,-23.1 z"
   id="path994" />
	<rect
   x="339.29999"
   y="537.40002"
   class="st0"
   width="8.6000004"
   height="55.700001"
   id="rect996" />
	<path
   class="st0"
   d="m 343.6,517.1 c -3.5,0 -5.9,2.3 -5.9,5.5 0,3.3 2.4,5.6 5.9,5.6 3.4,0 5.8,-2.3 5.8,-5.6 0,-3.2 -2.4,-5.5 -5.8,-5.5 z"
   id="path998" />
	<path
   class="st0"
   d="m 810.1,521.1 c 1,0 2.6,0.2 4,0.8 v -7.8 c -1.4,-0.2 -3,-0.3 -4.1,-0.3 -9.2,0 -15.7,5.9 -15.7,14.4 v 9.2 h -8.2 v 7.4 h 8.2 V 593 h 8.7 v -48.3 h 11 v -7.4 h -11 v -9.2 c 0.1,-4.2 2.9,-7 7.1,-7 z"
   id="path1000" />
	<polygon
   class="st0"
   points="630.2,544.7 630.2,537.4 617.4,537.4 617.4,523.2 608.8,523.2 608.8,537.4 598.5,537.4 598.5,544.7 608.8,544.7 608.8,593 617.4,593 617.4,544.7 "
   id="polygon1002" />
	<path
   class="st0"
   d="m 545.6,542.9 c 7.4,0 12.4,3.9 12.6,9.7 h 8.1 c 0,-9.5 -8.4,-16.1 -20.6,-16.1 -12.3,0 -20.7,6.3 -20.7,15.8 0,12.6 11.9,14.9 20.5,16.4 7.2,1.4 13.6,2.4 13.6,9.5 0,5.6 -5.3,9.3 -13,9.3 -8.1,0 -13.6,-4.1 -13.9,-10.2 h -8.5 c 0.2,9.9 9.2,16.8 22.2,16.8 12.8,0 21.7,-6.7 21.7,-16.4 0,-12.8 -12.7,-15 -20.9,-16.6 -7.2,-1.5 -13.1,-2.6 -13.1,-9.7 0.1,-5.1 5,-8.5 12,-8.5 z"
   id="path1004" />
	<path
   class="st0"
   d="m 584.6,528.1 c 3.4,0 5.8,-2.3 5.8,-5.6 0,-3.2 -2.4,-5.5 -5.8,-5.5 -3.5,0 -5.9,2.3 -5.9,5.5 0,3.4 2.4,5.6 5.9,5.6 z"
   id="path1006" />
	<path
   class="st0"
   d="m 495.4,550.9 v -13.5 h -8.7 V 593 h 8.7 v -28.2 c 0,-12.8 8,-20.2 21.6,-20.2 v -8.5 c -10.5,0 -18.1,5.3 -21.6,14.8 z"
   id="path1008" />
	<rect
   x="580.29999"
   y="537.40002"
   class="st0"
   width="8.6000004"
   height="55.700001"
   id="rect1010" />
	<path
   class="st0"
   d="m 473.7,572.7 h -8.9 c -2.4,8.2 -10.2,14.2 -19.5,14.2 -11.4,0 -19.9,-8 -21,-19 h 50 c 0.1,-0.9 0.2,-1.8 0.2,-2.7 0,-16.7 -12.3,-28.8 -29.3,-28.8 -17,0 -29.4,12 -29.4,28.8 0,16.7 12.4,28.9 29.4,28.9 13.7,0 25.4,-9 28.5,-21.4 z m -28.4,-29.1 c 10.9,0 19.4,7.3 20.9,17.6 h -41.7 c 1.7,-10.4 9.9,-17.6 20.8,-17.6 z"
   id="path1012" />
	<path
   class="st0"
   d="m 751.1,594.1 c 17,0 29.3,-12.2 29.3,-28.9 0,-16.7 -12.3,-28.8 -29.3,-28.8 -17,0 -29.4,12 -29.4,28.8 0,16.7 12.4,28.9 29.4,28.9 z m 0,-50 c 11.8,0 20.5,8.9 20.5,21.1 0,12.4 -8.6,21.3 -20.5,21.3 -11.9,0 -20.6,-8.9 -20.6,-21.3 0,-12.3 8.7,-21.1 20.6,-21.1 z"
   id="path1014" />
	<path
   class="st0"
   d="m 229,594.1 c 18,0 30,-11.9 30,-30 v -49.4 h -9.2 v 49 c 0,13.3 -8.2,21.9 -20.9,21.9 -12.6,0 -20.8,-8.6 -20.8,-21.9 v -49 h -9.3 v 49.4 c -0.1,18 12.1,30 30.2,30 z"
   id="path1016" />
	<polygon
   class="st0"
   points="661.2,586.6 646.7,615.3 655.9,615.3 693.5,537.4 684.3,537.4 665.3,577.9 646.1,537.4 636.9,537.4 "
   id="polygon1018" />
	<path
   class="st0"
   d="m 324.4,593 v -33.5 c 0,-14 -9,-23.1 -22.2,-23.1 -8.5,0 -15.2,4 -18.8,10.8 v -9.9 h -8.7 V 593 h 8.7 v -32.5 c 0,-10.5 6.4,-17.2 16.3,-17.2 9.8,0 16,6.7 16,17.2 V 593 Z"
   id="path1020" />
	<polygon
   class="st0"
   points="366.2,537.4 357,537.4 379.5,593 389.8,593 412.3,537.4 403.1,537.4 384.7,584.4 "
   id="polygon1022" />
	<path
   class="st0"
   d="m 638,488.3 c 9.5,0 17.5,-4.2 22.4,-11.1 v 8.7 c 0,11.5 -8.5,19.8 -20.3,19.8 -8.4,0 -16.4,-5 -18.8,-11.7 l -8.3,-0.1 c 2.7,10.9 14.2,18.9 27.4,18.9 16.7,0 28.6,-11.5 28.6,-27.3 v -52.2 h -8.6 v 10.1 c -4.9,-6.8 -12.8,-11 -22.4,-11 -15.9,0 -27.5,11.7 -27.5,28 0,16.2 11.6,27.9 27.5,27.9 z m 2,-49.2 c 11.8,0 20.5,8.9 20.5,21.3 0,12.3 -8.6,21.1 -20.5,21.1 -11.9,0 -20.6,-8.9 -20.6,-21.1 0,-12.4 8.6,-21.3 20.6,-21.3 z"
   id="path1024" />
	<path
   class="st0"
   d="m 354.8,441.6 v -8.3 H 346 V 489 h 8.8 v -35.2 c 0,-8.9 5.2,-14.3 13.5,-14.3 8.5,0 13.5,5.5 13.5,14.3 V 489 h 8.6 v -35.2 c 0,-8.9 5.2,-14.3 13.6,-14.3 8.4,0 13.4,5.5 13.4,14.3 V 489 h 8.6 v -36.3 c 0,-12.5 -7.6,-20.3 -19.2,-20.3 -8.6,0 -15.2,4.2 -18.2,11.3 -2.7,-7 -8.9,-11.3 -17.2,-11.3 -7.4,0 -13.4,3.3 -16.6,9.2 z"
   id="path1026" />
	<polygon
   class="st0"
   points="248.7,410.6 248.7,446.1 208.8,446.1 208.8,410.6 199.6,410.6 199.6,489 208.8,489 208.8,454.4 248.7,454.4 248.7,489 258,489 258,410.6 "
   id="polygon1028" />
	<path
   class="st0"
   d="m 560.7,466.1 v -32.7 h -8.8 v 32.7 c 0,10.1 -6.2,16.7 -15.9,16.7 -9.7,0 -15.9,-6.6 -15.9,-16.7 v -32.7 h -8.7 v 32.7 c 0,14.4 9.9,24 24.7,24 14.7,-0.1 24.6,-9.6 24.6,-24 z"
   id="path1030" />
	<path
   class="st0"
   d="m 299.6,490 c 9.4,0 17.4,-4.2 22.3,-11.1 V 489 h 8.6 v -55.7 h -8.6 v 10.2 c -4.9,-6.9 -12.8,-11.1 -22.3,-11.1 -16,0 -27.6,12 -27.6,28.8 0,16.7 11.6,28.8 27.6,28.8 z m 1.9,-50 c 11.8,0 20.5,8.9 20.5,21.1 0,12.4 -8.6,21.3 -20.5,21.3 -11.9,0 -20.6,-8.9 -20.6,-21.3 0,-12.2 8.6,-21.1 20.6,-21.1 z"
   id="path1032" />
	<path
   class="st0"
   d="m 450.2,443.6 v -33 h -8.7 V 489 h 8.7 v -10.1 c 4.9,6.8 12.7,11.1 22.3,11.1 15.9,0 27.6,-12.2 27.6,-28.9 0,-16.7 -11.7,-28.8 -27.6,-28.8 -9.6,0.1 -17.4,4.3 -22.3,11.3 z m 20.5,-3.6 c 11.9,0 20.5,8.9 20.5,21.1 0,12.4 -8.5,21.3 -20.5,21.3 -11.9,0 -20.5,-8.9 -20.5,-21.3 0,-12.2 8.5,-21.1 20.5,-21.1 z"
   id="path1034" />
	<path
   class="st0"
   d="m 584.5,460.8 c 0,-12.8 8,-20.2 21.6,-20.2 v -8.5 c -10.5,0 -18.1,5.3 -21.6,14.8 v -13.5 h -8.7 V 489 h 8.7 z"
   id="path1036" />
</g>
</svg>
