<?xml version="1.0" encoding="utf-8"?>
<!-- Generator: Adobe Illustrator 25.4.1, SVG Export Plug-In . SVG Version: 6.00 Build 0)  -->
<svg version="1.1" id="Ebene_1" xmlns="http://www.w3.org/2000/svg" xmlns:xlink="http://www.w3.org/1999/xlink" x="0px" y="0px"
	 viewBox="0 0 1000 1000" style="enable-background:new 0 0 1000 1000;" xml:space="preserve">
<style type="text/css">
	.st0{fill:#00C1D4;}
</style>
<g>
	<polygon class="st0" points="216,384.8 241.7,384.8 241.7,301.9 271.8,301.9 271.8,279.2 185.9,279.2 185.9,301.9 216,301.9 	"/>
	<polygon class="st0" points="406.5,343.4 440.9,343.4 440.9,384.8 466.7,384.8 466.7,279.2 440.9,279.2 440.9,320.7 406.5,320.7 
		406.5,279.2 380.8,279.2 380.8,384.8 406.5,384.8 	"/>
	<polygon class="st0" points="505.3,343.4 539.6,343.4 539.6,384.8 565.4,384.8 565.4,279.2 539.6,279.2 539.6,320.7 505.3,320.7 
		505.3,279.2 479.5,279.2 479.5,384.8 505.3,384.8 	"/>
	<path class="st0" d="M325,386.3c23.7,0,43-19.1,43-42.6v-64.5h-25.6v64.5c0,9.5-7.8,17.2-17.4,17.2c-9.5,0-17.3-7.7-17.4-17.2
		v-64.5h-25.6v64.5C282.1,367.2,301.3,386.3,325,386.3z"/>
	<path class="st0" d="M548.2,640.9c-17,0-29.4,12-29.4,28.8c0,16.7,12.4,28.9,29.4,28.9c17,0,29.3-12.2,29.3-28.9
		C577.5,653,565.2,640.9,548.2,640.9z M548.2,690.9c-11.9,0-20.6-8.9-20.6-21.3c0-12.3,8.6-21.1,20.6-21.1
		c11.8,0,20.5,8.9,20.5,21.1C568.6,682.1,560,690.9,548.2,690.9z"/>
	<path class="st0" d="M284,640.9c-17,0-29.4,12-29.4,28.8c0,16.7,12.4,28.9,29.4,28.9c13.8,0,25.5-9,28.5-21.4h-8.9
		c-2.4,8.2-10.2,14.2-19.5,14.2c-11.4,0-19.9-8-21-19h50c0.1-0.9,0.2-1.8,0.2-2.7C313.3,653,301,640.9,284,640.9z M263.3,665.7
		c1.7-10.5,9.9-17.6,20.8-17.6s19.4,7.3,20.9,17.6H263.3z"/>
	<path class="st0" d="M351.8,648.5c9.9,0,18.1,6.7,19.9,16.1h8.8c-1.8-13.8-13.9-23.8-28.6-23.8c-17,0-29.4,12-29.4,28.8
		c0,16.7,12.4,28.9,29.4,28.9c14.8,0,26.8-10,28.6-23.9h-8.8c-1.8,9.4-9.9,16.3-19.9,16.3c-11.9,0-20.6-8.9-20.6-21.3
		C331.2,657.4,339.9,648.5,351.8,648.5z"/>
	<rect x="589.8" y="619.1" class="st0" width="8.7" height="78.4"/>
	<polygon class="st0" points="258.4,619.1 199.2,619.1 199.2,627.4 224.2,627.4 224.2,697.5 233.4,697.5 233.4,627.4 258.4,627.4 	
		"/>
	<path class="st0" d="M728.5,652c-4.9-6.8-12.8-11-22.4-11c-15.9,0-27.5,11.7-27.5,28c0,16.3,11.6,28,27.5,28
		c9.5,0,17.5-4.2,22.4-11.1v8.7c0,11.5-8.5,19.8-20.3,19.8c-8.4,0-16.4-5-18.8-11.7l-8.3-0.1c2.7,10.9,14.2,18.9,27.4,18.9
		c16.7,0,28.6-11.5,28.6-27.3v-52.2h-8.6V652z M708.1,690c-11.9,0-20.6-8.9-20.6-21.1c0-12.4,8.6-21.3,20.6-21.3
		c11.8,0,20.5,8.9,20.5,21.3C728.5,681.2,719.9,690,708.1,690z"/>
	<polygon class="st0" points="774.9,682.4 755.7,641.8 746.5,641.8 770.8,691.1 756.3,719.8 765.5,719.8 803.1,641.8 793.9,641.8 	
		"/>
	<path class="st0" d="M484.8,640.9c-8.5,0-15.2,4-18.7,10.8v-9.9h-8.8v55.7h8.8V665c0-10.5,6.4-17.2,16.2-17.2c9.8,0,16,6.7,16,17.2
		v32.5h8.6V664C507,650,498,640.9,484.8,640.9z"/>
	<path class="st0" d="M640.2,640.9c-17,0-29.4,12-29.4,28.8c0,16.7,12.4,28.9,29.4,28.9c17,0,29.3-12.2,29.3-28.9
		C669.5,653,657.2,640.9,640.2,640.9z M640.2,690.9c-11.9,0-20.6-8.9-20.6-21.3c0-12.3,8.6-21.1,20.6-21.1
		c11.8,0,20.5,8.9,20.5,21.1C660.6,682.1,652,690.9,640.2,690.9z"/>
	<path class="st0" d="M420.1,640.9c-8.5,0-15.2,4-18.7,10.8v-32.6h-8.8v78.4h8.8V665c0-10.5,6.4-17.2,16.2-17.2
		c9.8,0,16,6.7,16,17.2v32.5h8.6V664C442.2,650,433.3,640.9,420.1,640.9z"/>
	<rect x="339.3" y="537.4" class="st0" width="8.6" height="55.7"/>
	<path class="st0" d="M343.6,517.1c-3.5,0-5.9,2.3-5.9,5.5c0,3.3,2.4,5.6,5.9,5.6c3.4,0,5.8-2.3,5.8-5.6
		C349.4,519.4,347,517.1,343.6,517.1z"/>
	<path class="st0" d="M810.1,521.1c1,0,2.6,0.2,4,0.8v-7.8c-1.4-0.2-3-0.3-4.1-0.3c-9.2,0-15.7,5.9-15.7,14.4v9.2h-8.2v7.4h8.2V593
		h8.7v-48.3h11v-7.4h-11v-9.2C803.1,523.9,805.9,521.1,810.1,521.1z"/>
	<polygon class="st0" points="617.4,593 617.4,544.7 630.2,544.7 630.2,537.4 617.4,537.4 617.4,523.2 608.8,523.2 608.8,537.4 
		598.5,537.4 598.5,544.7 608.8,544.7 608.8,593 	"/>
	<path class="st0" d="M545.6,542.9c7.4,0,12.4,3.9,12.6,9.7h8.1c0-9.5-8.4-16.1-20.6-16.1c-12.3,0-20.7,6.3-20.7,15.8
		c0,12.6,11.9,14.9,20.5,16.4c7.2,1.4,13.6,2.4,13.6,9.5c0,5.6-5.3,9.3-13,9.3c-8.1,0-13.6-4.1-13.9-10.2h-8.5
		c0.2,9.9,9.2,16.8,22.2,16.8c12.8,0,21.7-6.7,21.7-16.4c0-12.8-12.7-15-20.9-16.6c-7.2-1.5-13.1-2.6-13.1-9.7
		C533.7,546.3,538.6,542.9,545.6,542.9z"/>
	<path class="st0" d="M584.6,528.1c3.4,0,5.8-2.3,5.8-5.6c0-3.2-2.4-5.5-5.8-5.5c-3.5,0-5.9,2.3-5.9,5.5
		C578.7,525.9,581.1,528.1,584.6,528.1z"/>
	<path class="st0" d="M495.4,550.9v-13.5h-8.7V593h8.7v-28.2c0-12.8,8-20.2,21.6-20.2v-8.5C506.5,536.1,498.9,541.4,495.4,550.9z"/>
	<rect x="580.3" y="537.4" class="st0" width="8.6" height="55.7"/>
	<path class="st0" d="M473.7,572.7h-8.9c-2.4,8.2-10.2,14.2-19.5,14.2c-11.4,0-19.9-8-21-19h50c0.1-0.9,0.2-1.8,0.2-2.7
		c0-16.7-12.3-28.8-29.3-28.8c-17,0-29.4,12-29.4,28.8c0,16.7,12.4,28.9,29.4,28.9C458.9,594.1,470.6,585.1,473.7,572.7z
		 M445.3,543.6c10.9,0,19.4,7.3,20.9,17.6h-41.7C426.2,550.8,434.4,543.6,445.3,543.6z"/>
	<path class="st0" d="M751.1,594.1c17,0,29.3-12.2,29.3-28.9c0-16.7-12.3-28.8-29.3-28.8c-17,0-29.4,12-29.4,28.8
		C721.7,581.9,734.1,594.1,751.1,594.1z M751.1,544.1c11.8,0,20.5,8.9,20.5,21.1c0,12.4-8.6,21.3-20.5,21.3
		c-11.9,0-20.6-8.9-20.6-21.3C730.5,552.9,739.2,544.1,751.1,544.1z"/>
	<path class="st0" d="M229,594.1c18,0,30-11.9,30-30v-49.4h-9.2v49c0,13.3-8.2,21.9-20.9,21.9c-12.6,0-20.8-8.6-20.8-21.9v-49h-9.3
		v49.4C198.7,582.1,210.9,594.1,229,594.1z"/>
	<polygon class="st0" points="646.1,537.4 636.9,537.4 661.2,586.6 646.7,615.3 655.9,615.3 693.5,537.4 684.3,537.4 665.3,577.9 	
		"/>
	<path class="st0" d="M324.4,593v-33.5c0-14-9-23.1-22.2-23.1c-8.5,0-15.2,4-18.8,10.8v-9.9h-8.7V593h8.7v-32.5
		c0-10.5,6.4-17.2,16.3-17.2c9.8,0,16,6.7,16,17.2V593H324.4z"/>
	<polygon class="st0" points="403.1,537.4 384.7,584.4 366.2,537.4 357,537.4 379.5,593 389.8,593 412.3,537.4 	"/>
	<path class="st0" d="M638,488.3c9.5,0,17.5-4.2,22.4-11.1v8.7c0,11.5-8.5,19.8-20.3,19.8c-8.4,0-16.4-5-18.8-11.7l-8.3-0.1
		c2.7,10.9,14.2,18.9,27.4,18.9c16.7,0,28.6-11.5,28.6-27.3v-52.2h-8.6v10.1c-4.9-6.8-12.8-11-22.4-11c-15.9,0-27.5,11.7-27.5,28
		C610.5,476.6,622.1,488.3,638,488.3z M640,439.1c11.8,0,20.5,8.9,20.5,21.3c0,12.3-8.6,21.1-20.5,21.1c-11.9,0-20.6-8.9-20.6-21.1
		C619.4,448,628,439.1,640,439.1z"/>
	<path class="st0" d="M354.8,441.6v-8.3h-8.8V489h8.8v-35.2c0-8.9,5.2-14.3,13.5-14.3c8.5,0,13.5,5.5,13.5,14.3V489h8.6v-35.2
		c0-8.9,5.2-14.3,13.6-14.3c8.4,0,13.4,5.5,13.4,14.3V489h8.6v-36.3c0-12.5-7.6-20.3-19.2-20.3c-8.6,0-15.2,4.2-18.2,11.3
		c-2.7-7-8.9-11.3-17.2-11.3C364,432.4,358,435.7,354.8,441.6z"/>
	<polygon class="st0" points="258,489 258,410.6 248.7,410.6 248.7,446.1 208.8,446.1 208.8,410.6 199.6,410.6 199.6,489 208.8,489 
		208.8,454.4 248.7,454.4 248.7,489 	"/>
	<path class="st0" d="M560.7,466.1v-32.7h-8.8v32.7c0,10.1-6.2,16.7-15.9,16.7c-9.7,0-15.9-6.6-15.9-16.7v-32.7h-8.7v32.7
		c0,14.4,9.9,24,24.7,24C550.8,490,560.7,480.5,560.7,466.1z"/>
	<path class="st0" d="M299.6,490c9.4,0,17.4-4.2,22.3-11.1V489h8.6v-55.7h-8.6v10.2c-4.9-6.9-12.8-11.1-22.3-11.1
		c-16,0-27.6,12-27.6,28.8C272,477.9,283.6,490,299.6,490z M301.5,440c11.8,0,20.5,8.9,20.5,21.1c0,12.4-8.6,21.3-20.5,21.3
		c-11.9,0-20.6-8.9-20.6-21.3C280.9,448.9,289.5,440,301.5,440z"/>
	<path class="st0" d="M450.2,443.6v-33h-8.7V489h8.7v-10.1c4.9,6.8,12.7,11.1,22.3,11.1c15.9,0,27.6-12.2,27.6-28.9
		c0-16.7-11.7-28.8-27.6-28.8C462.9,432.4,455.1,436.6,450.2,443.6z M470.7,440c11.9,0,20.5,8.9,20.5,21.1
		c0,12.4-8.5,21.3-20.5,21.3c-11.9,0-20.5-8.9-20.5-21.3C450.2,448.9,458.7,440,470.7,440z"/>
	<path class="st0" d="M584.5,460.8c0-12.8,8-20.2,21.6-20.2v-8.5c-10.5,0-18.1,5.3-21.6,14.8v-13.5h-8.7V489h8.7V460.8z"/>
</g>
</svg>
